# 3ds Max Wavefront OBJ Exporter v0.97b - (c)2007 guruware
# File Created: 28.05.2018 09:19:47

#
# object CLEM_4_Camp
#

v  0.3478 3.4439 -0.1113
v  0.3448 3.4439 0.3479
v  0.5158 3.4439 0.4661
v  0.8770 3.4439 -0.2249
v  0.8724 3.4439 0.4685
v  1.0454 3.4439 0.2978
v  1.0477 3.4439 -0.0519
v  0.5205 3.4439 -0.2272
v  0.9168 -3.3347 2.7985
v  0.5287 -1.3782 2.1289
v  0.5545 -1.3782 -1.7358
v  0.9524 -3.3347 -2.5541
v  2.9864 -3.7780 4.6476
v  2.7104 -1.3782 3.8700
v  -1.1319 -1.3782 3.8444
v  -1.6537 -3.7780 4.6167
v  5.2681 -3.7780 -2.1242
v  4.5997 -1.3782 -1.7374
v  4.5746 -1.3782 2.0304
v  5.2378 -3.7780 2.4261
v  3.0465 -3.7780 -4.3755
v  -1.5936 -3.7780 -4.4064
v  -1.0821 -1.3782 -3.6273
v  2.7602 -1.3782 -3.6017
v  -2.5414 -1.3782 3.2026
v  -3.4287 -3.7780 4.0421
v  0.2223 2.7607 -0.8166
v  -0.2428 2.7607 -0.5043
v  -0.2510 2.7607 0.7329
v  0.2099 2.7607 1.0514
v  1.1705 2.7607 1.0578
v  1.6366 2.7607 0.5979
v  1.6429 2.7607 -0.3441
v  1.1830 2.7607 -0.8102
v  -0.4998 1.3370 -2.2440
v  -1.2747 1.3370 -1.7236
v  -1.3866 1.6223 -1.2653
v  -1.4049 1.6223 1.4787
v  -1.6764 1.3370 -0.9760
v  -1.6908 1.3370 1.1855
v  -0.5311 1.3370 2.4691
v  1.8926 1.3370 2.4853
v  3.0685 1.3370 1.3249
v  3.0844 1.3370 -1.0519
v  1.9240 1.3370 -2.2279
v  -1.2991 1.3370 1.9384
v  -2.5001 -1.3782 -3.0043
v  -3.5907 -3.7197 3.5216
v  -2.9983 -3.6026 2.7724
v  -2.9627 -3.6026 -2.5802
v  -3.5451 -3.7197 -3.3372
v  -2.9668 -1.3782 2.5238
v  -2.9497 -1.3782 1.8133
v  -1.7057 1.2276 -0.9946
v  -1.7639 1.0400 0.1494
v  -1.7615 1.0400 -0.2032
v  -1.7156 1.2454 1.1982
v  -2.9332 -1.3782 -2.3312
v  -2.9258 -1.3782 -1.7730
v  -0.0188 0.7076 -0.1916
v  -0.0247 0.7076 0.6856
v  -3.3761 -3.7780 -3.8555
v  0.5423 -4.1096 7.0285
v  0.5919 -4.1452 6.9940
v  0.6414 -4.1096 7.0285
v  0.5919 -4.0740 7.0629
v  0.5919 -0.0812 2.7877
v  0.6414 -0.0456 2.8222
v  0.5423 -0.0456 2.8222
v  0.5919 -0.0099 2.8566
v  0.6410 -4.0123 -6.3841
v  0.5962 -4.0479 -6.3437
v  0.5427 -4.0123 -6.3715
v  0.5875 -3.9767 -6.4119
v  0.8630 -2.0159 -4.2575
v  0.8095 -1.9803 -4.2854
v  0.9078 -1.9803 -4.2979
v  0.8543 -1.9446 -4.3258
v  1.1298 0.0162 -2.1713
v  1.0763 0.0518 -2.1992
v  1.1746 0.0518 -2.2118
v  1.1211 0.0874 -2.2396
# 82 vertices

vn -0.4520 0.8624 -0.2278
vn -0.4550 0.8624 0.2218
vn -0.1364 0.8700 0.4737
vn 0.1892 0.8622 -0.4699
vn 0.1830 0.8622 0.4724
vn 0.4684 0.8629 0.1899
vn 0.4708 0.8629 -0.1836
vn -0.1301 0.8700 -0.4755
vn -0.6202 0.4290 -0.6567
vn -0.6157 -0.3977 -0.6803
vn -0.6553 -0.4227 0.6260
vn -0.6243 0.4115 0.6640
vn 0.3192 -0.5207 0.7918
vn 0.3584 0.3587 0.8619
vn -0.1976 0.3544 0.9140
vn -0.1418 -0.5614 0.8153
vn 0.7839 -0.5283 -0.3261
vn 0.8671 0.3559 -0.3485
vn 0.8624 0.3559 0.3600
vn 0.7795 -0.5283 0.3365
vn 0.3297 -0.5207 -0.7875
vn -0.1310 -0.5614 -0.8171
vn -0.1854 0.3544 -0.9165
vn 0.3699 0.3587 -0.8571
vn -0.5906 0.4382 0.6776
vn -0.6264 -0.4662 0.6247
vn -0.2108 0.6617 -0.7195
vn -0.6378 0.6943 -0.3334
vn -0.6421 0.6943 0.3249
vn -0.2204 0.6617 0.7166
vn 0.2762 0.6677 0.6913
vn 0.6858 0.6695 0.2853
vn 0.6896 0.6695 -0.2762
vn 0.2854 0.6677 -0.6876
vn -0.2422 0.5495 -0.7996
vn -0.6021 0.5483 -0.5804
vn -0.6957 0.6149 -0.3714
vn -0.7006 0.6149 0.3621
vn -0.8883 0.4103 -0.2064
vn -0.8911 0.4067 0.2011
vn -0.2528 0.5495 0.7963
vn 0.3065 0.5583 0.7709
vn 0.7583 0.5677 0.3204
vn 0.7625 0.5677 -0.3103
vn 0.3167 0.5583 -0.7668
vn -0.6087 0.5489 0.5729
vn -0.5820 0.4382 -0.6850
vn -0.9397 -0.3419 -0.0067
vn -0.4675 0.6646 -0.5829
vn -0.4636 0.6833 0.5640
vn -0.9398 -0.3417 -0.0059
vn -0.8983 0.3700 0.2368
vn -0.7410 -0.1068 -0.6630
vn -0.9194 0.3420 -0.1945
vn -0.8982 -0.3271 -0.2936
vn -0.9208 -0.2336 0.3122
vn -0.9222 0.3401 0.1839
vn -0.8955 0.3701 -0.2471
vn -0.7708 -0.0669 0.6335
vn -0.6090 -0.7049 0.3635
vn -0.5179 -0.7098 -0.4774
vn -0.6180 -0.4662 -0.6330
vn -0.8144 -0.4100 0.4106
vn 0.0000 -0.9889 -0.1486
vn 0.8144 -0.4100 0.4106
vn -0.0000 0.1970 0.9804
vn -0.0000 -0.1970 -0.9804
vn 0.8144 0.4100 -0.4106
vn -0.8144 0.4100 -0.4106
vn -0.0000 0.9889 0.1486
vn 0.7557 -0.4100 -0.5106
vn 0.0188 -0.9889 0.1474
vn -0.8599 -0.4100 -0.3040
vn -0.1244 0.1970 -0.9725
vn 0.0951 -0.6618 0.7436
vn -0.9919 -0.0000 0.1269
vn 0.9919 0.0000 -0.1269
vn -0.0951 0.6618 -0.7436
vn 0.1244 -0.1970 0.9725
vn -0.7557 0.4100 0.5106
vn 0.8599 0.4100 0.3040
vn -0.0188 0.9889 -0.1474
# 82 vertex normals

vt 0.3616 0.0056 0.0000
vt 0.3846 0.0056 0.0000
vt 0.3905 0.0142 0.0000
vt 0.3557 0.0321 0.0000
vt 0.3905 0.0321 0.0000
vt 0.3819 0.0407 0.0000
vt 0.3643 0.0407 0.0000
vt 0.3557 0.0142 0.0000
vt 0.3587 0.9730 0.0000
vt 0.3922 0.8578 0.0000
vt 0.5864 0.8578 0.0000
vt 0.6276 0.9730 0.0000
vt 0.7423 0.0005 0.0000
vt 0.7281 0.1418 0.0000
vt 0.5351 0.1418 0.0000
vt 0.5092 0.0005 0.0000
vt 0.7923 0.5587 0.0000
vt 0.7726 0.7000 0.0000
vt 0.5834 0.7000 0.0000
vt 0.5637 0.5587 0.0000
vt 0.0005 0.7727 0.0000
vt 0.0005 0.5396 0.0000
vt 0.1418 0.5656 0.0000
vt 0.1418 0.7586 0.0000
vt 0.4641 0.1418 0.0000
vt 0.4198 0.0005 0.0000
vt 0.4258 0.6386 0.0000
vt 0.4258 0.6472 0.0000
vt 0.3855 0.6320 0.0000
vt 0.3855 0.6088 0.0000
vt 0.8546 0.0005 0.0000
vt 0.8212 0.1418 0.0000
vt 0.0005 0.8850 0.0000
vt 0.1418 0.8516 0.0000
vt 0.4816 0.5739 0.0000
vt 0.5047 0.5739 0.0000
vt 0.5242 0.6141 0.0000
vt 0.4621 0.6141 0.0000
vt 0.6347 0.4258 0.0000
vt 0.6168 0.4258 0.0000
vt 0.6016 0.3855 0.0000
vt 0.6498 0.3855 0.0000
vt 0.6868 0.9839 0.0000
vt 0.6692 0.9839 0.0000
vt 0.6544 0.9437 0.0000
vt 0.7017 0.9437 0.0000
vt 0.4258 0.6651 0.0000
vt 0.3855 0.6803 0.0000
vt 0.6081 0.4258 0.0000
vt 0.5783 0.3855 0.0000
vt 0.3017 0.5953 0.0000
vt 0.3017 0.5565 0.0000
vt 0.3185 0.5511 0.0000
vt 0.6433 0.4258 0.0000
vt 0.6731 0.3855 0.0000
vt 0.4258 0.6737 0.0000
vt 0.3855 0.7035 0.0000
vt 0.4242 0.6811 0.0000
vt 0.5474 0.6979 0.0000
vt 0.5621 0.6811 0.0000
vt 0.4389 0.6979 0.0000
vt 0.5648 0.3017 0.0000
vt 0.6866 0.3017 0.0000
vt 0.6183 0.8599 0.0000
vt 0.7377 0.8599 0.0000
vt 0.3017 0.7170 0.0000
vt 0.5206 0.3185 0.0000
vt 0.5261 0.3017 0.0000
vt 0.7453 0.3017 0.0000
vt 0.3017 0.7757 0.0000
vt 0.1418 0.4945 0.0000
vt 0.3209 0.9957 0.0000
vt 0.3587 0.9888 0.0000
vt 0.6276 0.9888 0.0000
vt 0.6654 0.9957 0.0000
vt 0.3712 0.8578 0.0000
vt 0.4069 0.8578 0.0000
vt 0.5484 0.7044 0.0000
vt 0.4909 0.7154 0.0000
vt 0.5086 0.7154 0.0000
vt 0.4382 0.7033 0.0000
vt 0.6151 0.8578 0.0000
vt 0.5871 0.8578 0.0000
vt 0.8022 0.1832 0.0000
vt 0.9989 0.1832 0.0000
vt 0.9989 0.4520 0.0000
vt 0.8022 0.4520 0.0000
vt 0.9995 0.4572 0.0000
vt 0.9882 0.5877 0.0000
vt 0.8138 0.5755 0.0000
vt 0.8022 0.4592 0.0000
vt 0.5086 0.7350 0.0000
vt 0.4645 0.7350 0.0000
vt 0.8566 0.7261 0.0000
vt 0.9156 0.8685 0.0000
vt 0.7407 0.8685 0.0000
vt 0.7690 0.7457 0.0000
vt 0.4353 0.1179 0.0000
vt 0.4353 0.3465 0.0000
vt 0.3229 0.4588 0.0000
vt 0.0899 0.0056 0.0000
vt 0.0899 0.4588 0.0000
vt 0.0005 0.4306 0.0000
vt 0.0005 0.0338 0.0000
vt 0.3229 0.0056 0.0000
vt 0.0005 0.4503 0.0000
vt 0.9194 0.7256 0.0000
vt 0.8335 0.7000 0.0000
vt 0.9177 0.9995 0.0000
vt 0.7210 0.9837 0.0000
vt 0.5062 0.3017 0.0000
vt 0.5049 0.2963 0.0000
vt 0.2953 0.5351 0.0000
vt 0.3017 0.5366 0.0000
vt 0.6915 0.9991 0.0000
vt 0.2948 0.9991 0.0000
vt 0.4115 0.0039 0.0000
vt 0.4425 0.1418 0.0000
vt 0.1418 0.4730 0.0000
vt 0.0039 0.4419 0.0000
vt 0.3404 0.4672 0.0000
vt 0.3386 0.4647 0.0000
vt 0.3403 0.4622 0.0000
vt 0.3421 0.4647 0.0000
vt 0.1274 0.4662 0.0000
vt 0.1291 0.4637 0.0000
vt 0.1291 0.4686 0.0000
vt 0.3289 0.9216 0.0000
vt 0.0106 0.9470 0.0000
vt 0.0109 0.9443 0.0000
vt 0.3291 0.9189 0.0000
vt 0.3303 0.8892 0.0000
vt 0.0110 0.8861 0.0000
vt 0.0106 0.8834 0.0000
vt 0.3299 0.8865 0.0000
vt 0.0005 0.0208 0.0000
vt 0.0038 0.0208 0.0000
vt 0.0043 0.0240 0.0000
vt 0.0010 0.0240 0.0000
vt 0.0033 0.0056 0.0000
vt 0.0034 0.0086 0.0000
vt 0.0005 0.0097 0.0000
vt 0.0005 0.0067 0.0000
vt 0.3244 0.9136 0.0000
vt 0.1654 0.9113 0.0000
vt 0.1647 0.9089 0.0000
vt 0.3237 0.9111 0.0000
vt 0.3331 0.9269 0.0000
vt 0.1746 0.9403 0.0000
vt 0.1746 0.9373 0.0000
vt 0.3330 0.9240 0.0000
vt 0.3326 0.9294 0.0000
vt 0.1742 0.9427 0.0000
vt 0.1646 0.9060 0.0000
vt 0.3235 0.9082 0.0000
vt 0.0064 0.9090 0.0000
vt 0.0058 0.9066 0.0000
vt 0.0162 0.9536 0.0000
vt 0.0162 0.9507 0.0000
vt 0.0157 0.9561 0.0000
vt 0.0056 0.9037 0.0000
vt 0.0005 0.0157 0.0000
vt 0.0039 0.0157 0.0000
vt 0.0044 0.0188 0.0000
vt 0.0010 0.0188 0.0000
# 165 texture coords

o CLEM_4_Camp
g CLEM_4_Camp
s 1
f 1/1/1 2/2/2 3/3/3 4/4/4 
f 3/3/3 5/5/5 6/6/6 4/4/4 
f 6/6/6 7/7/7 4/4/4 
f 8/8/8 1/1/1 4/4/4 
f 9/9/9 10/10/10 11/11/11 12/12/12 
s 2
f 13/13/13 14/14/14 15/15/15 16/16/16 
f 17/17/17 18/18/18 19/19/19 20/20/20 
f 21/21/21 22/22/22 23/23/23 24/24/24 
f 16/16/16 15/15/15 25/25/25 26/26/26 
f 1/27/1 8/28/8 27/29/27 28/30/28 
s 4
f 20/31/20 19/32/19 14/14/14 13/13/13 
f 17/33/17 21/21/21 24/24/24 18/34/18 
s 2
f 2/35/2 1/36/1 28/37/28 29/38/29 
f 5/39/5 3/40/3 30/41/30 31/42/31 
f 7/43/7 6/44/6 32/45/32 33/46/33 
f 8/28/8 4/47/4 34/48/34 27/29/27 
f 30/41/30 3/40/3 2/49/2 29/50/29 
f 35/51/35 36/52/36 37/53/37 28/30/28 
f 27/29/27 35/51/35 28/30/28 
s 4
f 6/54/6 5/39/5 31/42/31 32/55/32 
f 4/47/4 7/56/7 33/57/33 34/48/34 
s 2
f 38/58/38 29/38/29 28/37/28 39/59/39 
f 28/37/28 37/60/37 39/59/39 
f 40/61/40 38/58/38 39/59/39 
f 31/42/31 30/41/30 41/62/41 42/63/42 
f 33/46/33 32/45/32 43/64/43 44/65/44 
f 27/29/27 34/48/34 45/66/45 35/51/35 
f 30/41/30 29/50/29 38/67/38 46/68/46 
f 41/62/41 30/41/30 46/68/46 
s 4
f 32/55/32 31/42/31 42/63/42 43/69/43 
f 34/48/34 33/57/33 44/70/44 45/66/45 
s 2
f 23/23/23 47/71/47 36/52/36 35/51/35 
s 4
f 48/72/48 49/73/49 50/74/50 51/75/51 
s 1
f 52/76/52 53/77/53 49/73/49 48/72/48 
s 2
f 40/61/40 39/59/39 54/78/54 55/79/55 
f 54/78/54 56/80/56 55/79/55 
f 57/81/57 40/61/40 55/79/55 
f 54/78/54 58/82/58 59/83/59 56/80/56 
s 4
f 49/84/49 9/85/9 12/86/12 50/87/50 
s 8
f 49/88/49 53/89/53 10/90/10 9/91/9 
s 4
f 55/79/55 56/80/56 60/92/60 61/93/61 
s 8
f 56/94/56 59/95/59 11/96/11 60/97/60 
f 17/98/17 20/99/20 13/100/13 22/101/22 
f 13/100/13 16/102/16 26/103/26 22/101/22 
f 26/103/26 62/104/62 22/101/22 
f 21/105/21 17/98/17 22/101/22 
s 1
f 10/10/10 61/93/61 60/92/60 11/11/11 
s 2
f 42/63/42 41/62/41 15/15/15 14/14/14 
f 44/65/44 43/64/43 19/19/19 18/18/18 
f 23/23/23 35/51/35 45/66/45 24/24/24 
f 15/15/15 41/62/41 46/68/46 25/25/25 
s 4
f 43/69/43 42/63/42 14/14/14 19/32/19 
f 24/24/24 45/66/45 44/70/44 18/34/18 
s 2
f 22/22/22 62/106/62 47/71/47 23/23/23 
f 57/81/57 55/79/55 53/77/53 52/76/52 
s 1
f 58/82/58 51/75/51 50/74/50 59/83/59 
s 8
f 53/89/53 55/107/55 61/108/61 10/90/10 
f 50/109/50 12/110/12 11/96/11 59/95/59 
s 2
f 38/67/38 40/111/40 57/112/57 46/68/46 
f 37/53/37 36/52/36 54/113/54 39/114/39 
s 8
f 62/115/62 26/116/26 48/72/48 51/75/51 
s 2
f 48/117/48 26/26/26 25/25/25 52/118/52 
f 36/52/36 47/71/47 58/119/58 54/113/54 
f 52/118/52 25/25/25 46/68/46 57/112/57 
f 47/71/47 62/106/62 51/120/51 58/119/58 
s 1
f 63/121/63 64/122/64 65/123/65 66/124/66 
s 8
f 64/122/64 67/125/67 68/126/68 65/123/65 
f 63/121/63 69/127/69 67/125/67 64/122/64 
f 66/128/66 70/129/70 69/130/69 63/131/63 
f 65/132/65 68/133/68 70/134/70 66/135/66 
s 1
f 68/136/68 67/137/67 69/138/69 70/139/70 
f 71/140/71 72/141/72 73/142/73 74/143/74 
s 8
f 72/144/72 75/145/75 76/146/76 73/147/73 
f 71/148/71 77/149/77 75/150/75 72/151/72 
f 74/152/74 78/153/78 77/149/77 71/148/71 
f 73/147/73 76/146/76 78/154/78 74/155/74 
f 75/145/75 79/156/79 80/157/80 76/146/76 
f 77/149/77 81/158/81 79/159/79 75/150/75 
f 78/153/78 82/160/82 81/158/81 77/149/77 
f 76/146/76 80/157/80 82/161/82 78/154/78 
s 1
f 80/162/80 79/163/79 81/164/81 82/165/82 
# 71 polygons - 10 triangles

