# 3ds Max Wavefront OBJ Exporter v0.97b - (c)2007 guruware
# File Created: 22.04.2018 16:09:19

#
# object CLEM_2__Prop_Neon014
#

v  1.2550 -3.5072 -0.0568
v  -1.2550 -3.5072 -0.0568
v  -1.3293 -3.5814 0.1980
v  1.3293 -3.5814 0.1980
v  -1.5946 -3.8467 0.2061
v  1.5946 -3.8467 0.2061
v  -1.6843 -3.9364 -0.0437
v  1.6843 -3.9364 -0.0437
v  -1.4744 -3.7265 -0.2062
v  1.4744 -3.7265 -0.2062
v  -1.2550 0.6923 -0.0567
v  -1.3293 0.6179 0.1980
v  -1.5946 0.3526 0.2061
v  -1.6843 0.2630 -0.0437
v  -1.4744 0.4730 -0.2062
v  -2.6265 0.6923 -0.0567
v  -2.8055 0.6179 0.1980
v  -3.4443 0.3526 0.2061
v  -3.6602 0.2630 -0.0437
v  -3.1548 0.4730 -0.2062
v  0.0000 3.3283 -0.0567
v  -0.0000 3.4336 0.1980
v  -0.0000 3.8094 0.2061
v  0.0000 3.9364 -0.0437
v  0.0001 3.6390 -0.2062
v  2.6265 0.6923 -0.0567
v  2.8055 0.6180 0.1980
v  3.4444 0.3527 0.2061
v  3.6602 0.2630 -0.0437
v  3.1547 0.4729 -0.2062
v  1.2550 0.6923 -0.0567
v  1.3294 0.6180 0.1980
v  1.5947 0.3527 0.2061
v  1.6843 0.2630 -0.0437
v  1.4743 0.4729 -0.2062
v  0.0000 3.2338 -0.0568
v  -2.4609 0.7640 -0.0568
v  -2.2821 0.8383 0.1980
v  0.0000 3.1286 0.1980
v  -1.6433 1.1035 0.2061
v  0.0000 2.7528 0.2061
v  -1.4273 1.1932 -0.0437
v  0.0000 2.6257 -0.0437
v  -1.9326 0.9834 -0.2062
v  0.0000 2.9230 -0.2062
v  -1.1833 0.7640 -0.0568
v  -1.1090 0.8383 0.1980
v  -0.8438 1.1035 0.2061
v  -0.7541 1.1932 -0.0437
v  -0.9639 0.9834 -0.2062
v  -1.1833 -3.4354 -0.0569
v  -1.1091 -3.3612 0.1980
v  -0.8438 -3.0960 0.2061
v  -0.7541 -3.0062 -0.0436
v  -0.9639 -3.2160 -0.2062
v  1.1833 -3.4354 -0.0569
v  1.1091 -3.3612 0.1980
v  0.8438 -3.0959 0.2061
v  0.7541 -3.0062 -0.0436
v  0.9638 -3.2160 -0.2062
v  1.1833 0.7640 -0.0569
v  1.1091 0.8382 0.1979
v  0.8439 1.1035 0.2062
v  0.7541 1.1933 -0.0436
v  0.9638 0.9835 -0.2062
v  2.4609 0.7640 -0.0569
v  2.2823 0.8382 0.1979
v  1.6435 1.1035 0.2062
v  1.4272 1.1933 -0.0436
v  1.9324 0.9835 -0.2062
# 70 vertices

vn -0.5985 0.5985 -0.5325
vn 0.5985 0.5985 -0.5325
vn 0.2294 0.2293 0.9459
vn -0.2294 0.2294 0.9459
vn -0.4651 -0.4651 0.7533
vn 0.4651 -0.4651 0.7533
vn -0.6876 -0.6876 -0.2332
vn 0.6876 -0.6876 -0.2332
vn -0.1702 -0.1702 -0.9706
vn 0.1702 -0.1701 -0.9706
vn 0.6781 0.6781 -0.2835
vn 0.4936 0.4934 0.7162
vn -0.1909 -0.1909 0.9629
vn -0.6307 -0.6307 -0.4521
vn 0.1370 0.1371 -0.9810
vn 0.6006 0.2494 -0.7596
vn 0.1188 0.0493 0.9917
vn -0.5299 -0.2202 0.8190
vn -0.9073 -0.3767 -0.1867
vn -0.1902 -0.0789 -0.9786
vn -0.0000 -0.8462 -0.5329
vn 0.0000 -0.3233 0.9463
vn -0.0001 0.6578 0.7532
vn 0.0000 0.9724 -0.2333
vn 0.0001 0.2406 -0.9706
vn -0.6006 0.2494 -0.7596
vn -0.1188 0.0493 0.9917
vn 0.5300 -0.2199 0.8190
vn 0.9073 -0.3768 -0.1867
vn 0.1902 -0.0791 -0.9786
vn -0.6781 0.6781 -0.2835
vn -0.4934 0.4936 0.7162
vn 0.1909 -0.1909 0.9629
vn 0.6307 -0.6307 -0.4521
vn -0.1371 0.1370 -0.9810
vn 0.0000 0.9590 -0.2835
vn -0.8977 -0.3728 -0.2347
vn -0.5778 -0.2400 0.7801
vn -0.0000 0.6980 0.7161
vn 0.0870 0.0361 0.9956
vn -0.0000 -0.2690 0.9631
vn 0.6756 0.2805 -0.6818
vn 0.0000 -0.8918 -0.4525
vn -0.1626 -0.0675 -0.9844
vn 0.0000 0.1938 -0.9810
vn -0.5985 -0.5985 -0.5325
vn -0.2293 -0.2294 0.9459
vn 0.4651 0.4651 0.7533
vn 0.6876 0.6876 -0.2332
vn 0.1702 0.1702 -0.9706
vn -0.6781 -0.6780 -0.2839
vn -0.4936 -0.4938 0.7159
vn 0.1906 0.1906 0.9630
vn 0.6310 0.6309 -0.4514
vn -0.1368 -0.1367 -0.9811
vn 0.6780 -0.6781 -0.2839
vn 0.4938 -0.4936 0.7159
vn -0.1906 0.1906 0.9630
vn -0.6309 0.6310 -0.4514
vn 0.1367 -0.1368 -0.9811
vn 0.5983 -0.5983 -0.5331
vn 0.2297 -0.2297 0.9458
vn -0.4648 0.4648 0.7535
vn -0.6877 0.6877 -0.2328
vn -0.1704 0.1704 -0.9705
vn 0.8976 -0.3728 -0.2351
vn 0.5782 -0.2401 0.7797
vn -0.0867 0.0361 0.9956
vn -0.6762 0.2808 -0.6811
vn 0.1624 -0.0675 -0.9844
# 70 vertex normals

o CLEM_2__Prop_Neon014
g CLEM_2__Prop_Neon014
s 1
f 1//1 2//2 3//3 4//4 
f 4//4 3//3 5//5 6//6 
f 6//6 5//5 7//7 8//8 
f 8//8 7//7 9//9 10//10 
f 10//10 9//9 2//2 1//1 
s 2
f 2//2 11//11 12//12 3//3 
f 3//3 12//12 13//13 5//5 
f 5//5 13//13 14//14 7//7 
f 7//7 14//14 15//15 9//9 
f 9//9 15//15 11//11 2//2 
s 4
f 11//11 16//16 17//17 12//12 
f 12//12 17//17 18//18 13//13 
f 13//13 18//18 19//19 14//14 
f 14//14 19//19 20//20 15//15 
f 15//15 20//20 16//16 11//11 
s 8
f 16//16 21//21 22//22 17//17 
f 17//17 22//22 23//23 18//18 
f 18//18 23//23 24//24 19//19 
f 19//19 24//24 25//25 20//20 
f 20//20 25//25 21//21 16//16 
s 2
f 21//21 26//26 27//27 22//22 
f 22//22 27//27 28//28 23//23 
f 23//23 28//28 29//29 24//24 
f 24//24 29//29 30//30 25//25 
f 25//25 30//30 26//26 21//21 
s 4
f 26//26 31//31 32//32 27//27 
f 27//27 32//32 33//33 28//28 
f 28//28 33//33 34//34 29//29 
f 29//29 34//34 35//35 30//30 
f 30//30 35//35 31//31 26//26 
s 16
f 31//31 1//1 4//4 32//32 
f 32//32 4//4 6//6 33//33 
f 33//33 6//6 8//8 34//34 
f 34//34 8//8 10//10 35//35 
f 35//35 10//10 1//1 31//31 
s 1
f 36//36 37//37 38//38 39//39 
f 39//39 38//38 40//40 41//41 
f 41//41 40//40 42//42 43//43 
f 43//43 42//42 44//44 45//45 
f 45//45 44//44 37//37 36//36 
s 2
f 37//37 46//46 47//47 38//38 
f 38//38 47//47 48//48 40//40 
f 40//40 48//48 49//49 42//42 
f 42//42 49//49 50//50 44//44 
f 44//44 50//50 46//46 37//37 
s 4
f 46//46 51//51 52//52 47//47 
f 47//47 52//52 53//53 48//48 
f 48//48 53//53 54//54 49//49 
f 49//49 54//54 55//55 50//50 
f 50//50 55//55 51//51 46//46 
s 8
f 51//51 56//56 57//57 52//52 
f 52//52 57//57 58//58 53//53 
f 53//53 58//58 59//59 54//54 
f 54//54 59//59 60//60 55//55 
f 55//55 60//60 56//56 51//51 
s 2
f 56//56 61//61 62//62 57//57 
f 57//57 62//62 63//63 58//58 
f 58//58 63//63 64//64 59//59 
f 59//59 64//64 65//65 60//60 
f 60//60 65//65 61//61 56//56 
s 4
f 61//61 66//66 67//67 62//62 
f 62//62 67//67 68//68 63//63 
f 63//63 68//68 69//69 64//64 
f 64//64 69//69 70//70 65//65 
f 65//65 70//70 66//66 61//61 
s 16
f 66//66 36//36 39//39 67//67 
f 67//67 39//39 41//41 68//68 
f 68//68 41//41 43//43 69//69 
f 69//69 43//43 45//45 70//70 
f 70//70 45//45 36//36 66//66 
# 70 polygons

