# 3ds Max Wavefront OBJ Exporter v0.97b - (c)2007 guruware
# File Created: 22.04.2018 16:06:49

#
# object CLEM_2__Prop_Neon010
#

v  0.0000 1.0913 0.0000
v  -0.7931 0.4253 0.0000
v  -0.8590 0.2436 0.1331
v  0.0000 0.9650 0.1331
v  -0.9657 -0.0503 0.0823
v  -0.0000 0.7606 0.0823
v  -0.9657 -0.0503 -0.0823
v  -0.0000 0.7606 -0.0823
v  -0.8590 0.2436 -0.1331
v  0.0000 0.9650 -0.1331
v  -0.9748 1.4461 0.0000
v  -1.0559 1.3494 0.1331
v  -1.1870 1.1929 0.0823
v  -1.1870 1.1929 -0.0823
v  -1.0559 1.3494 -0.1331
v  -2.0088 1.4461 0.0000
v  -2.1762 1.3494 0.1331
v  -2.4469 1.1929 0.0823
v  -2.4469 1.1929 -0.0823
v  -2.1762 1.3494 -0.1331
v  -1.4918 2.3441 0.0000
v  -1.6160 2.3223 0.1331
v  -1.8169 2.2870 0.0823
v  -1.8169 2.2870 -0.0823
v  -1.6160 2.3223 -0.1331
v  -2.2852 3.0132 0.0000
v  -2.4751 3.0468 0.1331
v  -2.7824 3.1012 0.0823
v  -2.7824 3.1012 -0.0823
v  -2.4751 3.0468 -0.1331
v  -1.3136 3.3681 0.0000
v  -1.4226 3.4313 0.1331
v  -1.5990 3.5335 0.0823
v  -1.5990 3.5335 -0.0823
v  -1.4226 3.4313 -0.1331
v  -1.4891 4.3886 0.0000
v  -1.6127 4.5367 0.1331
v  -1.8127 4.7765 0.0823
v  -1.8127 4.7765 -0.0823
v  -1.6127 4.5367 -0.1331
v  -0.5166 4.0334 0.0000
v  -0.5600 4.1522 0.1331
v  -0.6302 4.3445 0.0823
v  -0.6302 4.3445 -0.0823
v  -0.5600 4.1522 -0.1331
v  0.0004 4.9351 0.0000
v  0.0001 5.1292 0.1331
v  -0.0003 5.4432 0.0823
v  -0.0003 5.4432 -0.0823
v  0.0001 5.1292 -0.1331
v  0.5204 4.0335 0.0000
v  0.5636 4.1523 0.1331
v  0.6334 4.3444 0.0823
v  0.6334 4.3444 -0.0823
v  0.5636 4.1523 -0.1331
v  1.4918 4.3883 0.0000
v  1.6160 4.5367 0.1331
v  1.8169 4.7767 0.0823
v  1.8169 4.7767 -0.0823
v  1.6160 4.5367 -0.1331
v  1.3133 3.3682 0.0000
v  1.4225 3.4313 0.1331
v  1.5993 3.5334 0.0823
v  1.5993 3.5334 -0.0823
v  1.4225 3.4313 -0.1331
v  2.2852 3.0132 0.0000
v  2.4751 3.0468 0.1331
v  2.7824 3.1012 0.0823
v  2.7824 3.1012 -0.0823
v  2.4751 3.0468 -0.1331
v  1.4918 2.3441 0.0000
v  1.6160 2.3223 0.1331
v  1.8169 2.2870 0.0823
v  1.8169 2.2870 -0.0823
v  1.6160 2.3223 -0.1331
v  2.0088 1.4461 0.0000
v  2.1762 1.3494 0.1331
v  2.4469 1.1929 0.0823
v  2.4469 1.1929 -0.0823
v  2.1762 1.3494 -0.1331
v  0.9748 1.4461 0.0000
v  1.0559 1.3494 0.1331
v  1.1870 1.1929 0.0823
v  1.1870 1.1929 -0.0823
v  1.0559 1.3494 -0.1331
v  0.7931 0.4253 0.0000
v  0.8590 0.2436 0.1331
v  0.9657 -0.0503 0.0823
v  0.9657 -0.0503 -0.0823
v  0.8590 0.2436 -0.1331
v  -0.0001 0.9455 0.0000
v  0.6384 1.0672 0.0000
v  0.6006 1.1584 0.1331
v  -0.0000 1.0440 0.1331
v  0.5394 1.3061 0.0823
v  0.0000 1.2033 0.0823
v  0.5394 1.3061 -0.0823
v  0.0000 1.2033 -0.0823
v  0.6006 1.1584 -0.1331
v  -0.0000 1.0440 -0.1331
v  1.1757 1.4323 0.0000
v  1.1061 1.5019 0.1331
v  0.9934 1.6146 0.0823
v  0.9934 1.6146 -0.0823
v  1.1061 1.5019 -0.1331
v  1.5408 1.9696 0.0000
v  1.4496 2.0074 0.1331
v  1.3019 2.0686 0.0823
v  1.3019 2.0686 -0.0823
v  1.4496 2.0074 -0.1331
v  1.6625 2.6080 0.0000
v  1.5640 2.6080 0.1331
v  1.4047 2.6080 0.0823
v  1.4047 2.6080 -0.0823
v  1.5640 2.6080 -0.1331
v  1.5408 3.2464 0.0000
v  1.4496 3.2086 0.1331
v  1.3019 3.1474 0.0823
v  1.3019 3.1474 -0.0823
v  1.4496 3.2086 -0.1331
v  1.1757 3.7837 0.0000
v  1.1061 3.7141 0.1331
v  0.9934 3.6014 0.0823
v  0.9934 3.6014 -0.0823
v  1.1061 3.7141 -0.1331
v  0.6384 4.1488 0.0000
v  0.6006 4.0576 0.1331
v  0.5394 3.9099 0.0823
v  0.5394 3.9099 -0.0823
v  0.6006 4.0576 -0.1331
v  0.0000 4.2705 0.0000
v  0.0000 4.1720 0.1331
v  -0.0000 4.0127 0.0823
v  -0.0000 4.0127 -0.0823
v  0.0000 4.1720 -0.1331
v  -0.6384 4.1488 0.0000
v  -0.6006 4.0576 0.1331
v  -0.5394 3.9099 0.0823
v  -0.5394 3.9099 -0.0823
v  -0.6006 4.0576 -0.1331
v  -1.1757 3.7837 0.0000
v  -1.1061 3.7141 0.1331
v  -0.9934 3.6014 0.0823
v  -0.9934 3.6014 -0.0823
v  -1.1061 3.7141 -0.1331
v  -1.5408 3.2464 0.0000
v  -1.4496 3.2086 0.1331
v  -1.3019 3.1474 0.0823
v  -1.3019 3.1474 -0.0823
v  -1.4496 3.2086 -0.1331
v  -1.6625 2.6079 0.0000
v  -1.5640 2.6080 0.1331
v  -1.4047 2.6080 0.0823
v  -1.4047 2.6080 -0.0823
v  -1.5640 2.6080 -0.1331
v  -1.5403 1.9694 0.0000
v  -1.4491 2.0074 0.1331
v  -1.3015 2.0687 0.0823
v  -1.3015 2.0687 -0.0823
v  -1.4491 2.0074 -0.1331
v  -1.1738 1.4322 0.0000
v  -1.1042 1.5019 0.1331
v  -0.9917 1.6147 0.0823
v  -0.9917 1.6147 -0.0823
v  -1.1042 1.5019 -0.1331
v  -0.6361 1.0672 0.0000
v  -0.5983 1.1585 0.1331
v  -0.5371 1.3061 0.0823
v  -0.5371 1.3061 -0.0823
v  -0.5983 1.1585 -0.1331
# 170 vertices

vn 0.0000 1.0000 0.0000
vn 0.3411 0.9400 0.0000
vn -0.0101 -0.0279 0.9996
vn -0.0000 0.4549 0.8905
vn -0.2929 -0.8073 0.5124
vn 0.0000 -0.6305 0.7762
vn -0.2929 -0.8073 -0.5124
vn 0.0000 -0.6305 -0.7762
vn -0.0101 -0.0279 -0.9996
vn -0.0000 0.4549 -0.8905
vn 0.6422 0.7666 0.0000
vn 0.2921 0.3487 0.8906
vn -0.4052 -0.4837 0.7758
vn -0.4052 -0.4837 -0.7758
vn 0.2921 0.3487 -0.8906
vn 0.8657 0.5005 0.0000
vn -0.0257 -0.0148 0.9996
vn -0.7435 -0.4298 0.5124
vn -0.7435 -0.4298 -0.5124
vn -0.0257 -0.0148 -0.9996
vn 0.9849 0.1730 0.0000
vn 0.4480 0.0787 0.8906
vn -0.6219 -0.1092 0.7754
vn -0.6219 -0.1092 -0.7754
vn 0.4480 0.0787 -0.8906
vn 0.9847 -0.1743 0.0000
vn -0.0290 0.0051 0.9996
vn -0.8456 0.1499 0.5123
vn -0.8456 0.1497 -0.5124
vn -0.0290 0.0051 -0.9996
vn 0.8652 -0.5013 0.0000
vn 0.3935 -0.2280 0.8906
vn -0.5467 0.3167 0.7751
vn -0.5467 0.3168 -0.7751
vn 0.3935 -0.2280 -0.8906
vn 0.6407 -0.7678 0.0000
vn -0.0189 0.0226 0.9996
vn -0.5502 0.6593 0.5123
vn -0.5502 0.6593 -0.5123
vn -0.0189 0.0226 -0.9996
vn 0.3429 -0.9394 -0.0000
vn 0.1560 -0.4274 0.8905
vn -0.2160 0.5916 0.7768
vn -0.2160 0.5916 -0.7768
vn 0.1560 -0.4274 -0.8905
vn 0.0013 -1.0000 0.0000
vn -0.0000 0.0300 0.9995
vn -0.0011 0.8587 0.5124
vn -0.0011 0.8587 -0.5124
vn -0.0000 0.0300 -0.9995
vn -0.3417 -0.9398 -0.0000
vn -0.1554 -0.4275 0.8905
vn 0.2154 0.5924 0.7763
vn 0.2154 0.5924 -0.7763
vn -0.1554 -0.4275 -0.8905
vn -0.6419 -0.7668 0.0000
vn 0.0191 0.0228 0.9996
vn 0.5513 0.6584 0.5123
vn 0.5511 0.6586 -0.5124
vn 0.0191 0.0228 -0.9996
vn -0.8660 -0.5001 -0.0000
vn -0.3939 -0.2275 0.8906
vn 0.5466 0.3157 0.7757
vn 0.5466 0.3156 -0.7756
vn -0.3939 -0.2275 -0.8906
vn -0.9847 -0.1743 0.0000
vn 0.0290 0.0051 0.9996
vn 0.8456 0.1497 0.5123
vn 0.8456 0.1497 -0.5123
vn 0.0290 0.0051 -0.9996
vn -0.9849 0.1730 0.0000
vn -0.4480 0.0787 0.8906
vn 0.6219 -0.1092 0.7754
vn 0.6219 -0.1092 -0.7754
vn -0.4480 0.0787 -0.8906
vn -0.8657 0.5005 0.0000
vn 0.0257 -0.0148 0.9996
vn 0.7435 -0.4298 0.5124
vn 0.7435 -0.4298 -0.5124
vn 0.0257 -0.0148 -0.9996
vn -0.6422 0.7666 0.0000
vn -0.2921 0.3487 0.8906
vn 0.4052 -0.4837 0.7758
vn 0.4052 -0.4837 -0.7758
vn -0.2921 0.3487 -0.8906
vn -0.3411 0.9400 0.0000
vn 0.0101 -0.0279 0.9996
vn 0.2929 -0.8073 0.5124
vn 0.2929 -0.8073 -0.5124
vn 0.0101 -0.0279 -0.9996
vn -0.0004 -1.0000 -0.0000
vn 0.3826 -0.9239 0.0000
vn 0.1424 -0.3439 0.9281
vn -0.0001 -0.3679 0.9299
vn -0.2973 0.7179 0.6295
vn 0.0003 0.7799 0.6259
vn -0.2973 0.7179 -0.6295
vn 0.0003 0.7798 -0.6260
vn 0.1424 -0.3439 -0.9281
vn -0.0001 -0.3679 -0.9299
vn 0.7071 -0.7071 -0.0000
vn 0.2601 -0.2601 0.9299
vn -0.5515 0.5515 0.6259
vn -0.5515 0.5515 -0.6259
vn 0.2601 -0.2601 -0.9299
vn 0.9239 -0.3826 -0.0000
vn 0.3439 -0.1424 0.9281
vn -0.7179 0.2973 0.6295
vn -0.7179 0.2973 -0.6295
vn 0.3439 -0.1424 -0.9281
vn 1.0000 0.0000 0.0000
vn 0.3678 -0.0000 0.9299
vn -0.7799 -0.0000 0.6259
vn -0.7799 -0.0000 -0.6259
vn 0.3678 0.0000 -0.9299
vn 0.9239 0.3826 0.0000
vn 0.3439 0.1424 0.9281
vn -0.7179 -0.2972 0.6295
vn -0.7179 -0.2972 -0.6295
vn 0.3439 0.1424 -0.9281
vn 0.7071 0.7071 0.0000
vn 0.2601 0.2601 0.9299
vn -0.5514 -0.5515 0.6259
vn -0.5514 -0.5515 -0.6259
vn 0.2601 0.2601 -0.9299
vn 0.3826 0.9239 0.0000
vn 0.1424 0.3439 0.9281
vn -0.2973 -0.7179 0.6295
vn -0.2973 -0.7179 -0.6295
vn 0.1424 0.3439 -0.9281
vn -0.0000 1.0000 0.0000
vn -0.0000 0.3678 0.9299
vn 0.0000 -0.7799 0.6259
vn 0.0000 -0.7799 -0.6259
vn -0.0000 0.3678 -0.9299
vn -0.3826 0.9239 0.0000
vn -0.1424 0.3439 0.9281
vn 0.2973 -0.7179 0.6295
vn 0.2973 -0.7179 -0.6295
vn -0.1424 0.3439 -0.9281
vn -0.7071 0.7071 0.0000
vn -0.2601 0.2601 0.9299
vn 0.5515 -0.5515 0.6259
vn 0.5515 -0.5515 -0.6259
vn -0.2601 0.2601 -0.9299
vn -0.9239 0.3826 0.0000
vn -0.3439 0.1424 0.9281
vn 0.7179 -0.2973 0.6295
vn 0.7179 -0.2973 -0.6295
vn -0.3439 0.1424 -0.9281
vn -1.0000 -0.0004 -0.0000
vn -0.3679 -0.0001 0.9299
vn 0.7798 0.0003 0.6260
vn 0.7798 0.0003 -0.6260
vn -0.3679 -0.0001 -0.9299
vn -0.9234 -0.3838 -0.0000
vn -0.3439 -0.1429 0.9281
vn 0.7174 0.2982 0.6296
vn 0.7174 0.2982 -0.6296
vn -0.3439 -0.1429 -0.9281
vn -0.7063 -0.7079 -0.0000
vn -0.2597 -0.2603 0.9300
vn 0.5509 0.5522 0.6257
vn 0.5509 0.5522 -0.6257
vn -0.2597 -0.2603 -0.9300
vn -0.3827 -0.9239 -0.0000
vn -0.1424 -0.3438 0.9282
vn 0.2974 0.7179 0.6294
vn 0.2974 0.7179 -0.6294
vn -0.1424 -0.3438 -0.9282
# 170 vertex normals

o CLEM_2__Prop_Neon010
g CLEM_2__Prop_Neon010
s 1
f 1//1 2//2 3//3 4//4 
s 2
f 4//4 3//3 5//5 6//6 
s 1
f 6//6 5//5 7//7 8//8 
s 2
f 8//8 7//7 9//9 10//10 
s 4
f 10//10 9//9 2//2 1//1 
s 8
f 2//2 11//11 12//12 3//3 
s 2
f 3//3 12//12 13//13 5//5 
s 4
f 5//5 13//13 14//14 7//7 
s 2
f 7//7 14//14 15//15 9//9 
s 16
f 9//9 15//15 11//11 2//2 
s 1
f 11//11 16//16 17//17 12//12 
s 2
f 12//12 17//17 18//18 13//13 
s 1
f 13//13 18//18 19//19 14//14 
s 2
f 14//14 19//19 20//20 15//15 
s 4
f 15//15 20//20 16//16 11//11 
s 8
f 16//16 21//21 22//22 17//17 
s 2
f 17//17 22//22 23//23 18//18 
s 4
f 18//18 23//23 24//24 19//19 
s 2
f 19//19 24//24 25//25 20//20 
s 16
f 20//20 25//25 21//21 16//16 
s 1
f 21//21 26//26 27//27 22//22 
s 2
f 22//22 27//27 28//28 23//23 
s 1
f 23//23 28//28 29//29 24//24 
s 2
f 24//24 29//29 30//30 25//25 
s 4
f 25//25 30//30 26//26 21//21 
s 8
f 26//26 31//31 32//32 27//27 
s 2
f 27//27 32//32 33//33 28//28 
s 4
f 28//28 33//33 34//34 29//29 
s 2
f 29//29 34//34 35//35 30//30 
s 16
f 30//30 35//35 31//31 26//26 
s 1
f 31//31 36//36 37//37 32//32 
s 2
f 32//32 37//37 38//38 33//33 
s 1
f 33//33 38//38 39//39 34//34 
s 2
f 34//34 39//39 40//40 35//35 
s 4
f 35//35 40//40 36//36 31//31 
s 8
f 36//36 41//41 42//42 37//37 
s 2
f 37//37 42//42 43//43 38//38 
s 4
f 38//38 43//43 44//44 39//39 
s 2
f 39//39 44//44 45//45 40//40 
s 16
f 40//40 45//45 41//41 36//36 
s 1
f 41//41 46//46 47//47 42//42 
s 2
f 42//42 47//47 48//48 43//43 
s 1
f 43//43 48//48 49//49 44//44 
s 2
f 44//44 49//49 50//50 45//45 
s 4
f 45//45 50//50 46//46 41//41 
s 8
f 46//46 51//51 52//52 47//47 
s 2
f 47//47 52//52 53//53 48//48 
s 4
f 48//48 53//53 54//54 49//49 
s 2
f 49//49 54//54 55//55 50//50 
s 16
f 50//50 55//55 51//51 46//46 
s 1
f 51//51 56//56 57//57 52//52 
s 2
f 52//52 57//57 58//58 53//53 
s 1
f 53//53 58//58 59//59 54//54 
s 2
f 54//54 59//59 60//60 55//55 
s 4
f 55//55 60//60 56//56 51//51 
s 8
f 56//56 61//61 62//62 57//57 
s 2
f 57//57 62//62 63//63 58//58 
s 4
f 58//58 63//63 64//64 59//59 
s 2
f 59//59 64//64 65//65 60//60 
s 16
f 60//60 65//65 61//61 56//56 
s 1
f 61//61 66//66 67//67 62//62 
s 2
f 62//62 67//67 68//68 63//63 
s 1
f 63//63 68//68 69//69 64//64 
s 2
f 64//64 69//69 70//70 65//65 
s 4
f 65//65 70//70 66//66 61//61 
s 8
f 66//66 71//71 72//72 67//67 
s 2
f 67//67 72//72 73//73 68//68 
s 4
f 68//68 73//73 74//74 69//69 
s 2
f 69//69 74//74 75//75 70//70 
s 16
f 70//70 75//75 71//71 66//66 
s 1
f 71//71 76//76 77//77 72//72 
s 2
f 72//72 77//77 78//78 73//73 
s 1
f 73//73 78//78 79//79 74//74 
s 2
f 74//74 79//79 80//80 75//75 
s 4
f 75//75 80//80 76//76 71//71 
s 8
f 76//76 81//81 82//82 77//77 
s 2
f 77//77 82//82 83//83 78//78 
s 4
f 78//78 83//83 84//84 79//79 
s 2
f 79//79 84//84 85//85 80//80 
s 16
f 80//80 85//85 81//81 76//76 
s 1
f 81//81 86//86 87//87 82//82 
s 2
f 82//82 87//87 88//88 83//83 
s 1
f 83//83 88//88 89//89 84//84 
s 2
f 84//84 89//89 90//90 85//85 
s 4
f 85//85 90//90 86//86 81//81 
s 8
f 86//86 1//1 4//4 87//87 
s 2
f 87//87 4//4 6//6 88//88 
s 4
f 88//88 6//6 8//8 89//89 
s 2
f 89//89 8//8 10//10 90//90 
s 16
f 90//90 10//10 1//1 86//86 
s 1
f 91//91 92//92 93//93 94//94 
s 2
f 94//94 93//93 95//95 96//96 
s 1
f 96//96 95//95 97//97 98//98 
s 2
f 98//98 97//97 99//99 100//100 
s 4
f 100//100 99//99 92//92 91//91 
s 1
f 92//92 101//101 102//102 93//93 
s 2
f 93//93 102//102 103//103 95//95 
s 1
f 95//95 103//103 104//104 97//97 
s 2
f 97//97 104//104 105//105 99//99 
s 4
f 99//99 105//105 101//101 92//92 
s 1
f 101//101 106//106 107//107 102//102 
s 2
f 102//102 107//107 108//108 103//103 
s 1
f 103//103 108//108 109//109 104//104 
s 2
f 104//104 109//109 110//110 105//105 
s 4
f 105//105 110//110 106//106 101//101 
s 1
f 106//106 111//111 112//112 107//107 
s 2
f 107//107 112//112 113//113 108//108 
s 1
f 108//108 113//113 114//114 109//109 
s 2
f 109//109 114//114 115//115 110//110 
s 4
f 110//110 115//115 111//111 106//106 
s 1
f 111//111 116//116 117//117 112//112 
s 2
f 112//112 117//117 118//118 113//113 
s 1
f 113//113 118//118 119//119 114//114 
s 2
f 114//114 119//119 120//120 115//115 
s 4
f 115//115 120//120 116//116 111//111 
s 1
f 116//116 121//121 122//122 117//117 
s 2
f 117//117 122//122 123//123 118//118 
s 1
f 118//118 123//123 124//124 119//119 
s 2
f 119//119 124//124 125//125 120//120 
s 4
f 120//120 125//125 121//121 116//116 
s 1
f 121//121 126//126 127//127 122//122 
s 2
f 122//122 127//127 128//128 123//123 
s 1
f 123//123 128//128 129//129 124//124 
s 2
f 124//124 129//129 130//130 125//125 
s 4
f 125//125 130//130 126//126 121//121 
s 1
f 126//126 131//131 132//132 127//127 
s 2
f 127//127 132//132 133//133 128//128 
s 1
f 128//128 133//133 134//134 129//129 
s 2
f 129//129 134//134 135//135 130//130 
s 4
f 130//130 135//135 131//131 126//126 
s 1
f 131//131 136//136 137//137 132//132 
s 2
f 132//132 137//137 138//138 133//133 
s 1
f 133//133 138//138 139//139 134//134 
s 2
f 134//134 139//139 140//140 135//135 
s 4
f 135//135 140//140 136//136 131//131 
s 1
f 136//136 141//141 142//142 137//137 
s 2
f 137//137 142//142 143//143 138//138 
s 1
f 138//138 143//143 144//144 139//139 
s 2
f 139//139 144//144 145//145 140//140 
s 4
f 140//140 145//145 141//141 136//136 
s 1
f 141//141 146//146 147//147 142//142 
s 2
f 142//142 147//147 148//148 143//143 
s 1
f 143//143 148//148 149//149 144//144 
s 2
f 144//144 149//149 150//150 145//145 
s 4
f 145//145 150//150 146//146 141//141 
s 1
f 146//146 151//151 152//152 147//147 
s 2
f 147//147 152//152 153//153 148//148 
s 1
f 148//148 153//153 154//154 149//149 
s 2
f 149//149 154//154 155//155 150//150 
s 4
f 150//150 155//155 151//151 146//146 
s 1
f 151//151 156//156 157//157 152//152 
s 2
f 152//152 157//157 158//158 153//153 
s 1
f 153//153 158//158 159//159 154//154 
s 2
f 154//154 159//159 160//160 155//155 
s 4
f 155//155 160//160 156//156 151//151 
s 1
f 156//156 161//161 162//162 157//157 
s 2
f 157//157 162//162 163//163 158//158 
s 1
f 158//158 163//163 164//164 159//159 
s 2
f 159//159 164//164 165//165 160//160 
s 4
f 160//160 165//165 161//161 156//156 
s 1
f 161//161 166//166 167//167 162//162 
s 2
f 162//162 167//167 168//168 163//163 
s 1
f 163//163 168//168 169//169 164//164 
s 2
f 164//164 169//169 170//170 165//165 
s 4
f 165//165 170//170 166//166 161//161 
s 1
f 166//166 91//91 94//94 167//167 
s 2
f 167//167 94//94 96//96 168//168 
s 1
f 168//168 96//96 98//98 169//169 
s 2
f 169//169 98//98 100//100 170//170 
s 4
f 170//170 100//100 91//91 166//166 
# 170 polygons

