# 3ds Max Wavefront OBJ Exporter v0.97b - (c)2007 guruware
# File Created: 20.04.2018 16:27:53

#
# object CLEM_2__Prop_Neon006
#

v  -0.4158 0.1588 0.0000
v  -0.6120 0.1588 0.0000
v  -0.6091 0.1577 0.0041
v  -0.4158 0.1577 0.0041
v  -0.6012 0.1547 0.0071
v  -0.4158 0.1547 0.0071
v  -0.5905 0.1506 0.0082
v  -0.4158 0.1506 0.0082
v  -0.5797 0.1465 0.0071
v  -0.4158 0.1465 0.0071
v  -0.5718 0.1435 0.0041
v  -0.4158 0.1435 0.0041
v  -0.5689 0.1424 0.0000
v  -0.4158 0.1424 0.0000
v  -0.5718 0.1435 -0.0041
v  -0.4158 0.1435 -0.0041
v  -0.5797 0.1465 -0.0071
v  -0.4158 0.1465 -0.0071
v  -0.5905 0.1506 -0.0082
v  -0.4158 0.1506 -0.0082
v  -0.6012 0.1547 -0.0071
v  -0.4158 0.1547 -0.0071
v  -0.6091 0.1577 -0.0041
v  -0.4158 0.1577 -0.0041
v  -0.4487 0.0132 0.0000
v  -0.4472 0.0133 0.0041
v  -0.4430 0.0136 0.0071
v  -0.4372 0.0140 0.0082
v  -0.4314 0.0143 0.0071
v  -0.4272 0.0146 0.0041
v  -0.4257 0.0147 -0.0000
v  -0.4272 0.0146 -0.0041
v  -0.4314 0.0143 -0.0071
v  -0.4372 0.0140 -0.0082
v  -0.4430 0.0136 -0.0071
v  -0.4472 0.0133 -0.0041
v  -0.5961 -0.1558 -0.0000
v  -0.5937 -0.1547 0.0041
v  -0.5871 -0.1517 0.0071
v  -0.5780 -0.1476 0.0082
v  -0.5690 -0.1435 0.0071
v  -0.5624 -0.1405 0.0041
v  -0.5600 -0.1394 -0.0000
v  -0.5624 -0.1405 -0.0041
v  -0.5690 -0.1435 -0.0071
v  -0.5780 -0.1476 -0.0082
v  -0.5871 -0.1517 -0.0071
v  -0.5937 -0.1547 -0.0041
v  -0.4173 -0.1520 -0.0000
v  -0.4173 -0.1509 0.0041
v  -0.4173 -0.1479 0.0071
v  -0.4173 -0.1438 0.0082
v  -0.4173 -0.1397 0.0071
v  -0.4173 -0.1367 0.0041
v  -0.4173 -0.1356 -0.0000
v  -0.4173 -0.1367 -0.0041
v  -0.4173 -0.1397 -0.0071
v  -0.4173 -0.1438 -0.0082
v  -0.4173 -0.1479 -0.0071
v  -0.4173 -0.1509 -0.0041
v  -0.2679 0.0256 0.0000
v  -0.4277 -0.1378 -0.0000
v  -0.4269 -0.1386 0.0041
v  -0.2672 0.0236 0.0041
v  -0.4249 -0.1408 0.0071
v  -0.2651 0.0184 0.0071
v  -0.4221 -0.1438 0.0082
v  -0.2623 0.0111 0.0082
v  -0.4193 -0.1468 0.0071
v  -0.2595 0.0039 0.0071
v  -0.4172 -0.1490 0.0041
v  -0.2575 -0.0013 0.0041
v  -0.4165 -0.1498 -0.0000
v  -0.2567 -0.0033 -0.0000
v  -0.4172 -0.1490 -0.0041
v  -0.2575 -0.0013 -0.0041
v  -0.4193 -0.1468 -0.0071
v  -0.2595 0.0039 -0.0071
v  -0.4221 -0.1438 -0.0082
v  -0.2623 0.0111 -0.0082
v  -0.4249 -0.1408 -0.0071
v  -0.2651 0.0184 -0.0071
v  -0.4269 -0.1386 -0.0041
v  -0.2672 0.0236 -0.0041
v  -0.2539 0.0121 0.0000
v  -0.4109 0.1569 0.0000
v  -0.4116 0.1561 0.0041
v  -0.2546 0.0102 0.0041
v  -0.4137 0.1539 0.0071
v  -0.2567 0.0050 0.0071
v  -0.4166 0.1510 0.0082
v  -0.2596 -0.0021 0.0082
v  -0.4194 0.1480 0.0071
v  -0.2624 -0.0092 0.0071
v  -0.4215 0.1459 0.0041
v  -0.2645 -0.0143 0.0041
v  -0.4223 0.1451 0.0000
v  -0.2653 -0.0162 -0.0000
v  -0.4215 0.1459 -0.0041
v  -0.2645 -0.0143 -0.0041
v  -0.4194 0.1480 -0.0071
v  -0.2624 -0.0092 -0.0071
v  -0.4166 0.1510 -0.0082
v  -0.2596 -0.0021 -0.0082
v  -0.4137 0.1539 -0.0071
v  -0.2567 0.0050 -0.0071
v  -0.4116 0.1561 -0.0041
v  -0.2546 0.0102 -0.0041
v  0.2883 0.0176 0.0000
v  -0.2678 0.0242 0.0000
v  -0.2678 0.0216 0.0041
v  0.2883 0.0150 0.0041
v  -0.2678 0.0144 0.0071
v  0.2883 0.0078 0.0071
v  -0.2678 0.0045 0.0082
v  0.2883 -0.0021 0.0082
v  -0.2679 -0.0053 0.0071
v  0.2883 -0.0119 0.0071
v  -0.2679 -0.0125 0.0041
v  0.2883 -0.0191 0.0041
v  -0.2679 -0.0152 -0.0000
v  0.2883 -0.0218 -0.0000
v  -0.2679 -0.0125 -0.0041
v  0.2883 -0.0191 -0.0041
v  -0.2679 -0.0053 -0.0071
v  0.2883 -0.0119 -0.0071
v  -0.2678 0.0045 -0.0082
v  0.2883 -0.0021 -0.0082
v  -0.2678 0.0144 -0.0071
v  0.2883 0.0078 -0.0071
v  -0.2678 0.0216 -0.0041
v  0.2883 0.0150 -0.0041
v  0.2788 0.1360 0.0000
v  0.5884 0.0050 0.0000
v  0.5900 0.0050 0.0041
v  0.2757 0.1406 0.0041
v  0.5943 0.0050 0.0071
v  0.2670 0.1531 0.0071
v  0.6002 0.0050 0.0082
v  0.2552 0.1702 0.0082
v  0.6061 0.0050 0.0071
v  0.2434 0.1874 0.0071
v  0.6104 0.0050 0.0041
v  0.2348 0.1999 0.0041
v  0.6120 0.0050 -0.0000
v  0.2316 0.2045 0.0000
v  0.6104 0.0050 -0.0041
v  0.2348 0.1999 -0.0041
v  0.6061 0.0050 -0.0071
v  0.2434 0.1874 -0.0071
v  0.6002 0.0050 -0.0082
v  0.2552 0.1702 -0.0082
v  0.5943 0.0050 -0.0071
v  0.2670 0.1531 -0.0071
v  0.5900 0.0050 -0.0041
v  0.2757 0.1406 -0.0041
v  0.2779 -0.1271 -0.0000
v  0.2741 -0.1323 0.0041
v  0.2638 -0.1464 0.0071
v  0.2497 -0.1658 0.0082
v  0.2356 -0.1852 0.0071
v  0.2253 -0.1993 0.0041
v  0.2215 -0.2045 -0.0000
v  0.2253 -0.1993 -0.0041
v  0.2356 -0.1852 -0.0071
v  0.2497 -0.1658 -0.0082
v  0.2638 -0.1464 -0.0071
v  0.2741 -0.1323 -0.0041
v  0.3083 -0.0092 -0.0000
v  0.3071 -0.0092 0.0041
v  0.3038 -0.0090 0.0071
v  0.2993 -0.0087 0.0082
v  0.2948 -0.0084 0.0071
v  0.2915 -0.0082 0.0041
v  0.2903 -0.0081 -0.0000
v  0.2915 -0.0082 -0.0041
v  0.2948 -0.0084 -0.0071
v  0.2993 -0.0087 -0.0082
v  0.3038 -0.0090 -0.0071
v  0.3071 -0.0092 -0.0041
v  -0.5589 0.1588 0.0000
v  -0.3956 0.0132 0.0000
v  -0.3941 0.0133 0.0041
v  -0.5560 0.1577 0.0041
v  -0.3898 0.0136 0.0071
v  -0.5481 0.1547 0.0071
v  -0.3841 0.0140 0.0082
v  -0.5373 0.1506 0.0082
v  -0.3783 0.0143 0.0071
v  -0.5266 0.1465 0.0071
v  -0.3741 0.0146 0.0041
v  -0.5187 0.1435 0.0041
v  -0.3726 0.0147 -0.0000
v  -0.5158 0.1424 0.0000
v  -0.3741 0.0146 -0.0041
v  -0.5187 0.1435 -0.0041
v  -0.3783 0.0143 -0.0071
v  -0.5266 0.1465 -0.0071
v  -0.3841 0.0140 -0.0082
v  -0.5373 0.1506 -0.0082
v  -0.3898 0.0136 -0.0071
v  -0.5481 0.1547 -0.0071
v  -0.3941 0.0133 -0.0041
v  -0.5560 0.1577 -0.0041
v  -0.5429 -0.1558 -0.0000
v  -0.5405 -0.1547 0.0041
v  -0.5339 -0.1517 0.0071
v  -0.5249 -0.1476 0.0082
v  -0.5159 -0.1435 0.0071
v  -0.5093 -0.1405 0.0041
v  -0.5069 -0.1394 -0.0000
v  -0.5093 -0.1405 -0.0041
v  -0.5159 -0.1435 -0.0071
v  -0.5249 -0.1476 -0.0082
v  -0.5339 -0.1517 -0.0071
v  -0.5405 -0.1547 -0.0041
v  -0.5071 0.1588 0.0000
v  -0.3439 0.0132 0.0000
v  -0.3423 0.0133 0.0041
v  -0.5042 0.1577 0.0041
v  -0.3381 0.0136 0.0071
v  -0.4964 0.1547 0.0071
v  -0.3323 0.0140 0.0082
v  -0.4856 0.1506 0.0082
v  -0.3266 0.0143 0.0071
v  -0.4748 0.1465 0.0071
v  -0.3224 0.0146 0.0041
v  -0.4670 0.1435 0.0041
v  -0.3208 0.0147 -0.0000
v  -0.4641 0.1424 0.0000
v  -0.3224 0.0146 -0.0041
v  -0.4670 0.1435 -0.0041
v  -0.3266 0.0143 -0.0071
v  -0.4748 0.1465 -0.0071
v  -0.3323 0.0140 -0.0082
v  -0.4856 0.1506 -0.0082
v  -0.3381 0.0136 -0.0071
v  -0.4964 0.1547 -0.0071
v  -0.3423 0.0133 -0.0041
v  -0.5042 0.1577 -0.0041
v  -0.4912 -0.1558 -0.0000
v  -0.4888 -0.1547 0.0041
v  -0.4822 -0.1517 0.0071
v  -0.4732 -0.1476 0.0082
v  -0.4642 -0.1435 0.0071
v  -0.4575 -0.1405 0.0041
v  -0.4551 -0.1394 -0.0000
v  -0.4575 -0.1405 -0.0041
v  -0.4642 -0.1435 -0.0071
v  -0.4732 -0.1476 -0.0082
v  -0.4822 -0.1517 -0.0071
v  -0.4888 -0.1547 -0.0041
# 252 vertices

vn 0.6533 0.7571 -0.0000
vn -0.9344 0.3562 -0.0000
vn -0.6456 0.2461 0.7230
vn 0.6532 0.6558 0.3786
vn -0.2798 0.1066 0.9541
vn 0.6532 0.3786 0.6557
vn -0.0677 0.0258 0.9974
vn 0.6532 -0.0000 0.7572
vn 0.1165 -0.0444 0.9922
vn 0.6532 -0.3786 0.6557
vn 0.3986 -0.1519 0.9044
vn 0.6532 -0.6557 0.3786
vn 0.9344 -0.3562 -0.0000
vn 0.6532 -0.7572 -0.0000
vn 0.3986 -0.1519 -0.9044
vn 0.6532 -0.6557 -0.3786
vn 0.1165 -0.0444 -0.9922
vn 0.6532 -0.3786 -0.6557
vn -0.0677 0.0258 -0.9974
vn 0.6532 0.0000 -0.7572
vn -0.2798 0.1066 -0.9541
vn 0.6532 0.3786 -0.6557
vn -0.6456 0.2461 -0.7230
vn 0.6533 0.6557 -0.3785
vn -0.9980 -0.0627 -0.0000
vn -0.7271 -0.0457 0.6850
vn -0.2965 -0.0186 0.9549
vn 0.0919 0.0058 0.9958
vn 0.4716 0.0296 0.8813
vn 0.8316 0.0522 0.5529
vn 0.9980 0.0627 0.0000
vn 0.8316 0.0522 -0.5529
vn 0.4716 0.0296 -0.8813
vn 0.0919 0.0058 -0.9958
vn -0.2965 -0.0186 -0.9549
vn -0.7271 -0.0457 -0.6850
vn -0.9068 -0.4216 0.0000
vn -0.6580 -0.3119 0.6854
vn -0.3002 -0.1528 0.9416
vn -0.0701 -0.0400 0.9967
vn 0.1320 0.0693 0.9888
vn 0.4364 0.2192 0.8726
vn 0.9012 0.4334 0.0000
vn 0.4364 0.2192 -0.8726
vn 0.1320 0.0693 -0.9888
vn -0.0701 -0.0400 -0.9967
vn -0.3002 -0.1528 -0.9416
vn -0.6580 -0.3119 -0.6854
vn 0.6611 -0.7503 -0.0000
vn 0.6602 -0.6498 0.3767
vn 0.6574 -0.3747 0.6538
vn 0.6532 0.0030 0.7572
vn 0.6485 0.3830 0.6579
vn 0.6447 0.6628 0.3808
vn 0.6432 0.7657 0.0000
vn 0.6447 0.6628 -0.3808
vn 0.6485 0.3830 -0.6579
vn 0.6532 0.0030 -0.7572
vn 0.6574 -0.3747 -0.6538
vn 0.6602 -0.6498 -0.3767
vn 0.1013 0.9949 0.0000
vn -0.9963 0.0861 -0.0000
vn -0.9270 0.0167 0.3748
vn 0.2518 0.7850 0.5660
vn -0.7366 -0.1765 0.6529
vn 0.4714 0.4789 0.7406
vn -0.4763 -0.4470 0.7572
vn 0.6160 0.2675 0.7409
vn -0.2184 -0.7222 0.6563
vn 0.7305 0.0792 0.6784
vn -0.0329 -0.9251 0.3783
vn 0.8532 -0.1575 0.4972
vn 0.0341 -0.9994 -0.0000
vn 0.9400 -0.3411 -0.0000
vn -0.0329 -0.9251 -0.3783
vn 0.8532 -0.1575 -0.4972
vn -0.2185 -0.7222 -0.6563
vn 0.7305 0.0792 -0.6784
vn -0.4763 -0.4470 -0.7572
vn 0.6160 0.2675 -0.7409
vn -0.7366 -0.1765 -0.6529
vn 0.4714 0.4789 -0.7406
vn -0.9270 0.0167 -0.3748
vn 0.2518 0.7850 -0.5660
vn 0.9428 0.3333 -0.0000
vn 0.0445 0.9990 0.0000
vn -0.0227 0.9260 0.3770
vn 0.8552 0.1520 0.4956
vn -0.2094 0.7260 0.6550
vn 0.7298 -0.0850 0.6784
vn -0.4696 0.4540 0.7572
vn 0.6127 -0.2746 0.7411
vn -0.7332 0.1858 0.6542
vn 0.4656 -0.4866 0.7392
vn -0.9265 -0.0066 0.3762
vn 0.2445 -0.7898 0.5626
vn -0.9971 -0.0759 -0.0000
vn 0.0941 -0.9956 -0.0000
vn -0.9265 -0.0066 -0.3762
vn 0.2445 -0.7898 -0.5626
vn -0.7332 0.1858 -0.6542
vn 0.4656 -0.4866 -0.7392
vn -0.4696 0.4540 -0.7572
vn 0.6127 -0.2746 -0.7411
vn -0.2094 0.7260 -0.6550
vn 0.7298 -0.0850 -0.6784
vn -0.0227 0.9260 -0.3770
vn 0.8552 0.1520 -0.4956
vn 0.6084 0.7937 0.0000
vn -0.5981 0.8014 0.0000
vn -0.6426 0.4934 0.5862
vn 0.6491 0.4869 0.5845
vn -0.6754 0.1862 0.7136
vn 0.6778 0.1824 0.7122
vn -0.6830 0.0016 0.7305
vn 0.6830 -0.0016 0.7305
vn -0.6779 -0.1824 0.7122
vn 0.6754 -0.1862 0.7135
vn -0.6491 -0.4869 0.5845
vn 0.6426 -0.4934 0.5862
vn -0.6084 -0.7937 -0.0000
vn 0.5981 -0.8014 -0.0000
vn -0.6491 -0.4869 -0.5845
vn 0.6426 -0.4934 -0.5862
vn -0.6779 -0.1824 -0.7122
vn 0.6754 -0.1862 -0.7135
vn -0.6830 0.0016 -0.7305
vn 0.6830 -0.0016 -0.7305
vn -0.6754 0.1862 -0.7136
vn 0.6778 0.1824 -0.7122
vn -0.6426 0.4934 -0.5862
vn 0.6491 0.4869 -0.5845
vn 0.7203 -0.6937 -0.0000
vn -1.0000 -0.0011 -0.0000
vn -0.6892 -0.0017 0.7246
vn 0.2094 -0.1778 0.9615
vn -0.2459 -0.0020 0.9693
vn 0.0609 -0.0475 0.9970
vn 0.1279 0.0025 0.9918
vn -0.0401 0.0183 0.9990
vn 0.4899 0.0047 0.8718
vn -0.1597 0.0992 0.9822
vn 0.8381 0.0043 0.5454
vn -0.3672 0.3639 0.8560
vn 1.0000 0.0040 0.0000
vn -0.6111 0.7916 -0.0000
vn 0.8381 0.0043 -0.5454
vn -0.3672 0.3639 -0.8560
vn 0.4899 0.0047 -0.8718
vn -0.1597 0.0992 -0.9822
vn 0.1279 0.0025 -0.9918
vn -0.0401 0.0183 -0.9990
vn -0.2459 -0.0020 -0.9693
vn 0.0609 -0.0475 -0.9970
vn -0.6892 -0.0017 -0.7246
vn 0.2094 -0.1778 -0.9615
vn 0.7555 0.6551 0.0000
vn 0.1926 0.1439 0.9707
vn 0.0561 0.0369 0.9977
vn -0.0396 -0.0131 0.9991
vn -0.1567 -0.0739 0.9849
vn -0.3613 -0.3124 0.8786
vn -0.6324 -0.7746 -0.0000
vn -0.3613 -0.3124 -0.8786
vn -0.1567 -0.0739 -0.9849
vn -0.0396 -0.0131 -0.9991
vn 0.0561 0.0369 -0.9977
vn 0.1926 0.1439 -0.9707
vn 0.9996 -0.0276 -0.0000
vn 0.8573 -0.0238 0.5143
vn 0.4983 -0.0136 0.8669
vn 0.0412 0.0000 0.9992
vn -0.4315 0.0143 0.9020
vn -0.8309 0.0266 0.5558
vn -0.9995 0.0321 0.0000
vn -0.8309 0.0266 -0.5558
vn -0.4315 0.0143 -0.9020
vn 0.0412 0.0000 -0.9992
vn 0.4983 -0.0136 -0.8669
vn 0.8573 -0.0238 -0.5143
vn -0.6656 -0.7463 -0.0000
vn -0.6237 -0.6993 0.3492
vn -0.4400 -0.4934 0.7503
vn -0.1329 -0.1491 0.9799
vn 0.2214 0.2482 0.9431
vn 0.5312 0.5956 0.6026
vn 0.6656 0.7463 0.0000
vn 0.5312 0.5956 -0.6026
vn 0.2214 0.2482 -0.9431
vn -0.1329 -0.1491 -0.9799
vn -0.4400 -0.4934 -0.7503
vn -0.6237 -0.6993 -0.3492
vn -0.7538 0.6571 0.0000
vn -0.7022 0.6122 0.3635
vn -0.4919 0.4288 0.7577
vn -0.1428 0.1245 0.9819
vn 0.2592 -0.2259 0.9390
vn 0.6067 -0.5289 0.5934
vn 0.7538 -0.6571 -0.0000
vn 0.6067 -0.5289 -0.5934
vn 0.2592 -0.2259 -0.9390
vn -0.1428 0.1245 -0.9819
vn -0.4919 0.4288 -0.7577
vn -0.7022 0.6122 -0.3635
# 204 vertex normals

o CLEM_2__Prop_Neon006
g CLEM_2__Prop_Neon006
s 20
f 1//1 2//2 3//3 4//4 
s 12
f 4//4 3//3 5//5 6//6 
s 237
f 6//6 5//5 7//7 8//8 
s 244
f 8//8 7//7 9//9 10//10 
s 20
f 10//10 9//9 11//11 12//12 
f 12//12 11//11 13//13 14//14 
s 4
f 14//14 13//13 15//15 16//16 
s 12
f 16//16 15//15 17//17 18//18 
s 253
f 18//18 17//17 19//19 20//20 
s 244
f 20//20 19//19 21//21 22//22 
s 20
f 22//22 21//21 23//23 24//24 
f 24//24 23//23 2//2 1//1 
s 2
f 2//2 25//25 26//26 3//3 
s 34
f 3//3 26//26 27//27 5//5 
s 1008
f 5//5 27//27 28//28 7//7 
s 978
f 7//7 28//28 29//29 9//9 
s 2
f 9//9 29//29 30//30 11//11 
f 11//11 30//30 31//31 13//13 
f 13//13 31//31 32//32 15//15 
s 50
f 15//15 32//32 33//33 17//17 
s 1008
f 17//17 33//33 34//34 19//19 
s 962
f 19//19 34//34 35//35 21//21 
s 2
f 21//21 35//35 36//36 23//23 
f 23//23 36//36 25//25 2//2 
s 4
f 25//25 37//37 38//38 26//26 
s 20
f 26//26 38//38 39//39 27//27 
s 792
f 27//27 39//39 40//40 28//28 
s 780
f 28//28 40//40 41//41 29//29 
s 4
f 29//29 41//41 42//42 30//30 
f 30//30 42//42 43//43 31//31 
f 31//31 43//43 44//44 32//32 
s 196
f 32//32 44//44 45//45 33//33 
s 968
f 33//33 45//45 46//46 34//34 
s 780
f 34//34 46//46 47//47 35//35 
s 4
f 35//35 47//47 48//48 36//36 
f 36//36 48//48 37//37 25//25 
s 1
f 37//37 49//49 50//50 38//38 
s 9
f 38//38 50//50 51//51 39//39 
s 8
f 39//39 51//51 52//52 40//40 
s 793
f 40//40 52//52 53//53 41//41 
s 1
f 41//41 53//53 54//54 42//42 
f 42//42 54//54 55//55 43//43 
f 43//43 55//55 56//56 44//44 
s 9
f 44//44 56//56 57//57 45//45 
s 8
f 45//45 57//57 58//58 46//46 
s 969
f 46//46 58//58 59//59 47//47 
s 1
f 47//47 59//59 60//60 48//48 
f 48//48 60//60 49//49 37//37 
s 2
f 4//4 6//6 8//8 10//10 12//12 14//14 16//16 18//18 20//20 22//22 24//24 1//1 
f 51//51 50//50 49//49 
f 52//52 51//51 49//49 59//59 58//58 57//57 56//56 55//55 54//54 53//53 
f 60//60 59//59 49//49 
s 1
f 61//61 62//62 63//63 64//64 
f 64//64 63//63 65//65 66//66 
f 66//66 65//65 67//67 68//68 
f 68//68 67//67 69//69 70//70 
f 70//70 69//69 71//71 72//72 
f 72//72 71//71 73//73 74//74 
f 74//74 73//73 75//75 76//76 
f 76//76 75//75 77//77 78//78 
f 78//78 77//77 79//79 80//80 
f 80//80 79//79 81//81 82//82 
f 82//82 81//81 83//83 84//84 
f 84//84 83//83 62//62 61//61 
s 2
f 64//64 66//66 68//68 70//70 72//72 74//74 76//76 78//78 80//80 82//82 84//84 61//61 
f 65//65 63//63 62//62 
f 67//67 65//65 62//62 81//81 79//79 77//77 75//75 73//73 71//71 69//69 
f 83//83 81//81 62//62 
s 1
f 85//85 86//86 87//87 88//88 
f 88//88 87//87 89//89 90//90 
f 90//90 89//89 91//91 92//92 
f 92//92 91//91 93//93 94//94 
f 94//94 93//93 95//95 96//96 
f 96//96 95//95 97//97 98//98 
f 98//98 97//97 99//99 100//100 
f 100//100 99//99 101//101 102//102 
f 102//102 101//101 103//103 104//104 
f 104//104 103//103 105//105 106//106 
f 106//106 105//105 107//107 108//108 
f 108//108 107//107 86//86 85//85 
s 2
f 88//88 90//90 92//92 94//94 96//96 98//98 100//100 102//102 104//104 106//106 108//108 85//85 
f 89//89 87//87 86//86 
f 91//91 89//89 86//86 105//105 103//103 101//101 99//99 97//97 95//95 93//93 
f 107//107 105//105 86//86 
s 1
f 109//109 110//110 111//111 112//112 
f 112//112 111//111 113//113 114//114 
f 114//114 113//113 115//115 116//116 
f 116//116 115//115 117//117 118//118 
f 118//118 117//117 119//119 120//120 
f 120//120 119//119 121//121 122//122 
f 122//122 121//121 123//123 124//124 
f 124//124 123//123 125//125 126//126 
f 126//126 125//125 127//127 128//128 
f 128//128 127//127 129//129 130//130 
f 130//130 129//129 131//131 132//132 
f 132//132 131//131 110//110 109//109 
s 2
f 112//112 114//114 116//116 118//118 120//120 122//122 124//124 126//126 128//128 130//130 132//132 109//109 
f 113//113 111//111 110//110 
f 115//115 113//113 110//110 129//129 127//127 125//125 123//123 121//121 119//119 117//117 
f 131//131 129//129 110//110 
s 14
f 133//133 134//134 135//135 136//136 
s 6
f 136//136 135//135 137//137 138//138 
s 1142
f 138//138 137//137 139//139 140//140 
s 1146
f 140//140 139//139 141//141 142//142 
s 12
f 142//142 141//141 143//143 144//144 
s 14
f 144//144 143//143 145//145 146//146 
s 2
f 146//146 145//145 147//147 148//148 
s 6
f 148//148 147//147 149//149 150//150 
s 1150
f 150//150 149//149 151//151 152//152 
s 1146
f 152//152 151//151 153//153 154//154 
s 12
f 154//154 153//153 155//155 156//156 
f 156//156 155//155 134//134 133//133 
s 144
f 134//134 157//157 158//158 135//135 
s 48
f 135//135 158//158 159//159 137//137 
s 368
f 137//137 159//159 160//160 139//139 
s 224
f 139//139 160//160 161//161 141//141 
s 128
f 141//141 161//161 162//162 143//143 
s 144
f 143//143 162//162 163//163 145//145 
s 16
f 145//145 163//163 164//164 147//147 
s 24
f 147//147 164//164 165//165 149//149 
s 248
f 149//149 165//165 166//166 151//151 
s 224
f 151//151 166//166 167//167 153//153 
s 128
f 153//153 167//167 168//168 155//155 
f 155//155 168//168 157//157 134//134 
s 14
f 157//157 169//169 170//170 158//158 
s 1867
f 158//158 170//170 171//171 159//159 
s 1345
f 159//159 171//171 172//172 160//160 
s 369
f 160//160 172//172 173//173 161//161 
s 258
f 161//161 173//173 174//174 162//162 
s 2
f 162//162 174//174 175//175 163//163 
s 258
f 163//163 175//175 176//176 164//164 
s 1955
f 164//164 176//176 177//177 165//165 
s 1185
f 165//165 177//177 178//178 166//166 
s 251
f 166//166 178//178 179//179 167//167 
s 22
f 167//167 179//179 180//180 168//168 
s 4
f 168//168 180//180 169//169 157//157 
s 513
f 169//169 133//133 136//136 170//170 
s 1537
f 170//170 136//136 138//138 171//171 
s 1355
f 171//171 138//138 140//140 172//172 
s 1347
f 172//172 140//140 142//142 173//173 
s 257
f 173//173 142//142 144//144 174//174 
s 1
f 174//174 144//144 146//146 175//175 
s 513
f 175//175 146//146 148//148 176//176 
s 1537
f 176//176 148//148 150//150 177//177 
s 1443
f 177//177 150//150 152//152 178//178 
s 1203
f 178//178 152//152 154//154 179//179 
s 19
f 179//179 154//154 156//156 180//180 
s 1
f 180//180 156//156 133//133 169//169 
s 2
f 181//181 182//25 183//26 184//182 
s 34
f 184//182 183//26 185//27 186//183 
s 1008
f 186//183 185//27 187//28 188//184 
s 978
f 188//184 187//28 189//29 190//185 
s 2
f 190//185 189//29 191//30 192//186 
f 192//186 191//30 193//31 194//187 
f 194//187 193//31 195//32 196//188 
s 50
f 196//188 195//32 197//33 198//189 
s 1008
f 198//189 197//33 199//34 200//190 
s 962
f 200//190 199//34 201//35 202//191 
s 2
f 202//191 201//35 203//36 204//192 
f 204//192 203//36 182//25 181//181 
s 4
f 182//25 205//193 206//194 183//26 
s 20
f 183//26 206//194 207//195 185//27 
s 792
f 185//27 207//195 208//196 187//28 
s 780
f 187//28 208//196 209//197 189//29 
s 4
f 189//29 209//197 210//198 191//30 
f 191//30 210//198 211//199 193//31 
f 193//31 211//199 212//200 195//32 
s 196
f 195//32 212//200 213//201 197//33 
s 968
f 197//33 213//201 214//202 199//34 
s 780
f 199//34 214//202 215//203 201//35 
s 4
f 201//35 215//203 216//204 203//36 
f 203//36 216//204 205//193 182//25 
s 2
f 217//181 218//25 219//26 220//182 
s 34
f 220//182 219//26 221//27 222//183 
s 1008
f 222//183 221//27 223//28 224//184 
s 978
f 224//184 223//28 225//29 226//185 
s 2
f 226//185 225//29 227//30 228//186 
f 228//186 227//30 229//31 230//187 
f 230//187 229//31 231//32 232//188 
s 50
f 232//188 231//32 233//33 234//189 
s 1008
f 234//189 233//33 235//34 236//190 
s 962
f 236//190 235//34 237//35 238//191 
s 2
f 238//191 237//35 239//36 240//192 
f 240//192 239//36 218//25 217//181 
s 4
f 218//25 241//193 242//194 219//26 
s 20
f 219//26 242//194 243//195 221//27 
s 792
f 221//27 243//195 244//196 223//28 
s 780
f 223//28 244//196 245//197 225//29 
s 4
f 225//29 245//197 246//198 227//30 
f 227//30 246//198 247//199 229//31 
f 229//31 247//199 248//200 231//32 
s 196
f 231//32 248//200 249//201 233//33 
s 968
f 233//33 249//201 250//202 235//34 
s 780
f 235//34 250//202 251//203 237//35 
s 4
f 237//35 251//203 252//204 239//36 
f 239//36 252//204 241//193 218//25 
# 188 polygons - 8 triangles

