# 3ds Max Wavefront OBJ Exporter v0.97b - (c)2007 guruware
# File Created: 22.04.2018 16:10:48

#
# object CLEM_2__Prop_Neon018
#

v  2.1654 1.1313 -0.0372
v  1.8835 0.2234 -0.0372
v  1.9268 0.1986 0.1297
v  2.2157 1.1291 0.1297
v  2.0812 0.1101 0.1350
v  2.3951 1.1212 0.1350
v  2.1334 0.0802 -0.0286
v  2.4558 1.1185 -0.0286
v  2.0112 0.1502 -0.1350
v  2.3138 1.1248 -0.1350
v  1.0087 -0.7347 -0.0372
v  1.0411 -0.7714 0.1297
v  1.1569 -0.9022 0.1350
v  1.1960 -0.9464 -0.0286
v  1.1044 -0.8429 -0.1350
v  0.0865 -1.3905 -0.0372
v  0.1123 -1.4319 0.1297
v  0.2043 -1.5797 0.1350
v  0.2354 -1.6296 -0.0286
v  0.1626 -1.5127 -0.1350
v  -0.8051 -1.8728 -0.0372
v  -0.8672 -1.9616 0.1297
v  -1.0891 -2.2792 0.1350
v  -1.1641 -2.3865 -0.0286
v  -0.9886 -2.1353 -0.1350
v  -0.8103 -1.9083 -0.0372
v  -0.8588 -1.9035 0.1297
v  -1.0319 -1.8865 0.1350
v  -1.0904 -1.8808 -0.0286
v  -0.9535 -1.8942 -0.1350
v  -0.7979 -1.6648 -0.0372
v  -0.8468 -1.6676 0.1297
v  -1.0212 -1.6776 0.1350
v  -1.0802 -1.6809 -0.0286
v  -0.9422 -1.6731 -0.1350
v  -0.8930 -1.0925 -0.0372
v  -0.9396 -1.1087 0.1297
v  -1.1061 -1.1665 0.1350
v  -1.1624 -1.1861 -0.0286
v  -1.0307 -1.1403 -0.1350
v  -1.1784 -0.5745 -0.0372
v  -1.2183 -0.6029 0.1297
v  -1.3606 -0.7047 0.1350
v  -1.4087 -0.7391 -0.0286
v  -1.2961 -0.6586 -0.1350
v  -1.8436 0.1574 -0.0372
v  -1.8832 0.1286 0.1297
v  -2.0246 0.0259 0.1350
v  -2.0724 -0.0088 -0.0286
v  -1.9605 0.0724 -0.1350
v  -2.0900 0.5892 -0.0372
v  -2.1364 0.5725 0.1297
v  -2.3024 0.5128 0.1350
v  -2.3585 0.4926 -0.0286
v  -2.2272 0.5398 -0.1350
v  -2.1702 1.0491 -0.0372
v  -2.2196 1.0493 0.1297
v  -2.3961 1.0502 0.1350
v  -2.4558 1.0505 -0.0286
v  -2.3162 1.0498 -0.1350
v  -2.0925 1.4694 -0.0372
v  -2.1384 1.4885 0.1297
v  -2.3025 1.5565 0.1350
v  -2.3580 1.5796 -0.0286
v  -2.2282 1.5257 -0.1350
v  -1.8623 1.8035 -0.0372
v  -1.8967 1.8392 0.1297
v  -2.0199 1.9667 0.1350
v  -2.0615 2.0098 -0.0286
v  -1.9641 1.9089 -0.1350
v  -1.5155 2.0249 -0.0372
v  -1.5335 2.0712 0.1297
v  -1.5976 2.2363 0.1350
v  -1.6193 2.2922 -0.0286
v  -1.5686 2.1615 -0.1350
v  -1.0837 2.1003 -0.0372
v  -1.0847 2.1495 0.1297
v  -1.0880 2.3253 0.1350
v  -1.0892 2.3847 -0.0286
v  -1.0865 2.2456 -0.1350
v  -0.7790 2.0590 -0.0372
v  -0.7657 2.1063 0.1297
v  -0.7183 2.2752 0.1350
v  -0.7022 2.3323 -0.0286
v  -0.7397 2.1987 -0.1350
v  -0.4962 1.9351 -0.0372
v  -0.4700 1.9767 0.1297
v  -0.3762 2.1253 0.1350
v  -0.3445 2.1755 -0.0286
v  -0.4187 2.0580 -0.1350
v  -0.2596 1.7307 -0.0372
v  -0.2206 1.7612 0.1297
v  -0.0811 1.8704 0.1350
v  -0.0340 1.9072 -0.0286
v  -0.1443 1.8209 -0.1350
v  -0.0255 1.2697 -0.0372
v  -0.0154 1.3573 0.1297
v  0.0206 1.6701 0.1350
v  0.0327 1.7758 -0.0286
v  0.0043 1.5284 -0.1350
v  0.5370 1.9388 -0.0372
v  0.5094 1.9814 0.1297
v  0.4105 2.1339 0.1350
v  0.3771 2.1854 -0.0286
v  0.4553 2.0648 -0.1350
v  1.0947 2.0985 -0.0372
v  1.0920 2.1483 0.1297
v  1.0824 2.3263 0.1350
v  1.0792 2.3865 -0.0286
v  1.0867 2.2457 -0.1350
v  1.4893 2.0302 -0.0372
v  1.5065 2.0765 0.1297
v  1.5681 2.2422 0.1350
v  1.5889 2.2982 -0.0286
v  1.5402 2.1672 -0.1350
v  1.8361 1.8222 -0.0372
v  1.8689 1.8592 0.1297
v  1.9860 1.9916 0.1350
v  2.0256 2.0364 -0.0286
v  1.9329 1.9316 -0.1350
v  2.0851 1.5030 -0.0372
v  2.1302 1.5241 0.1297
v  2.2917 1.5996 0.1350
v  2.3462 1.6252 -0.0286
v  2.2185 1.5654 -0.1350
# 125 vertices

vn -0.9255 0.0408 -0.3765
vn -0.8061 0.4621 -0.3697
vn -0.4795 0.2749 0.8333
vn -0.5404 0.0238 0.8411
vn 0.5301 -0.3039 0.7917
vn 0.6170 -0.0272 0.7865
vn 0.8373 -0.4800 -0.2616
vn 0.9649 -0.0425 -0.2592
vn 0.0956 -0.0548 -0.9939
vn 0.1228 -0.0054 -0.9924
vn -0.6204 0.7010 -0.3518
vn -0.3880 0.4384 0.8107
vn 0.3898 -0.4404 0.8088
vn 0.6381 -0.7210 -0.2701
vn 0.0463 -0.0524 -0.9976
vn -0.4961 0.7965 -0.3456
vn -0.3157 0.5070 0.8020
vn 0.3055 -0.4905 0.8162
vn 0.5084 -0.8164 -0.2740
vn 0.0282 -0.0453 -0.9986
vn -0.6426 0.7023 -0.3064
vn 0.0939 0.1344 0.9865
vn -0.3460 -0.4953 0.7968
vn -0.5610 -0.8030 -0.2011
vn -0.1278 -0.1830 -0.9748
vn -0.1930 0.9526 0.2351
vn 0.6199 -0.0608 0.7824
vn -0.5478 0.0537 0.8349
vn -0.9540 0.0936 -0.2848
vn -0.0129 0.0013 -0.9999
vn 0.9438 0.0537 -0.3263
vn 0.6345 0.0361 0.7721
vn -0.5325 -0.0303 0.8459
vn -0.9549 -0.0544 -0.2918
vn 0.0097 0.0005 -1.0000
vn 0.8949 0.3106 -0.3205
vn 0.6115 0.2122 0.7623
vn -0.4863 -0.1688 0.8574
vn -0.9013 -0.3128 -0.2998
vn 0.0306 0.0106 -0.9995
vn 0.7693 0.5499 -0.3253
vn 0.5185 0.3707 0.7706
vn -0.4317 -0.3086 0.8476
vn -0.7778 -0.5560 -0.2929
vn 0.0107 0.0076 -0.9999
vn 0.7573 0.5499 -0.3523
vn 0.4730 0.3435 0.8113
vn -0.4765 -0.3460 0.8082
vn -0.7791 -0.5658 -0.2698
vn -0.0576 -0.0418 -0.9975
vn 0.8771 0.3158 -0.3619
vn 0.5332 0.1920 0.8239
vn -0.5665 -0.2040 0.7984
vn -0.9073 -0.3267 -0.2649
vn -0.0884 -0.0318 -0.9956
vn 0.9319 -0.0047 -0.3627
vn 0.5653 -0.0029 0.8249
vn -0.6030 0.0031 0.7977
vn -0.9644 0.0049 -0.2646
vn -0.0956 0.0005 -0.9954
vn 0.8589 -0.3562 -0.3681
vn 0.5132 -0.2128 0.8315
vn -0.5628 0.2334 0.7930
vn -0.8914 0.3697 -0.2623
vn -0.0988 0.0410 -0.9943
vn 0.6463 -0.6694 -0.3663
vn 0.3882 -0.4020 0.8293
vn -0.4218 0.4369 0.7945
vn -0.6701 0.6941 -0.2630
vn -0.0717 0.0743 -0.9947
vn 0.3370 -0.8674 -0.3660
vn 0.2026 -0.5214 0.8289
vn -0.2198 0.5657 0.7948
vn -0.3494 0.8993 -0.2631
vn -0.0372 0.0957 -0.9947
vn 0.0179 -0.9332 -0.3589
vn 0.0110 -0.5722 0.8200
vn -0.0115 0.5981 0.8014
vn -0.0185 0.9637 -0.2664
vn -0.0017 0.0870 -0.9962
vn -0.2526 -0.8994 -0.3567
vn -0.1558 -0.5549 0.8172
vn 0.1609 0.5730 0.8036
vn 0.2605 0.9277 -0.2675
vn 0.0221 0.0789 -0.9966
vn -0.4982 -0.7896 -0.3583
vn -0.3060 -0.4850 0.8193
vn 0.3188 0.5052 0.8020
vn 0.5143 0.8151 -0.2667
vn 0.0457 0.0724 -0.9963
vn -0.7330 -0.5737 -0.3654
vn -0.4414 -0.3454 0.8282
vn 0.4774 0.3736 0.7953
vn 0.7597 0.5945 -0.2634
vn 0.0799 0.0625 -0.9948
vn -0.1102 -0.9572 -0.2675
vn -0.0778 -0.6757 0.7331
vn 0.0203 0.1762 0.9841
vn 0.0956 0.8296 -0.5500
vn -0.0230 -0.1994 -0.9796
vn 0.5024 -0.7747 -0.3840
vn 0.2873 -0.4430 0.8493
vn -0.3396 0.5236 0.7814
vn -0.5259 0.8109 -0.2568
vn -0.0739 0.1140 -0.9907
vn 0.0499 -0.9274 -0.3707
vn 0.0296 -0.5502 0.8345
vn -0.0329 0.6111 0.7908
vn -0.0518 0.9639 -0.2613
vn -0.0060 0.1120 -0.9937
vn -0.3245 -0.8731 -0.3638
vn -0.1963 -0.5281 0.8262
vn 0.2105 0.5665 0.7967
vn 0.3360 0.9041 -0.2641
vn 0.0341 0.0918 -0.9952
vn -0.6172 -0.6977 -0.3638
vn -0.3733 -0.4220 0.8262
vn 0.4004 0.4526 0.7968
vn 0.6391 0.7224 -0.2641
vn 0.0649 0.0733 -0.9952
vn -0.8412 -0.3936 -0.3706
vn -0.4992 -0.2336 0.8344
vn 0.5542 0.2593 0.7909
vn 0.8743 0.4091 -0.2613
vn 0.1014 0.0475 -0.9937
# 125 vertex normals

o CLEM_2__Prop_Neon018
g CLEM_2__Prop_Neon018
s 19
f 1//1 2//2 3//3 4//4 
f 4//4 3//3 5//5 6//6 
f 6//6 5//5 7//7 8//8 
f 8//8 7//7 9//9 10//10 
f 10//10 9//9 2//2 1//1 
s 6
f 2//2 11//11 12//12 3//3 
f 3//3 12//12 13//13 5//5 
f 5//5 13//13 14//14 7//7 
f 7//7 14//14 15//15 9//9 
f 9//9 15//15 11//11 2//2 
s 12
f 11//11 16//16 17//17 12//12 
f 12//12 17//17 18//18 13//13 
f 13//13 18//18 19//19 14//14 
f 14//14 19//19 20//20 15//15 
f 15//15 20//20 16//16 11//11 
s 8
f 16//16 21//21 22//22 17//17 
f 17//17 22//22 23//23 18//18 
f 18//18 23//23 24//24 19//19 
f 19//19 24//24 25//25 20//20 
f 20//20 25//25 21//21 16//16 
s 6
f 21//21 26//26 27//27 22//22 
f 22//22 27//27 28//28 23//23 
f 23//23 28//28 29//29 24//24 
f 24//24 29//29 30//30 25//25 
f 25//25 30//30 26//26 21//21 
s 12
f 26//26 31//31 32//32 27//27 
f 27//27 32//32 33//33 28//28 
f 28//28 33//33 34//34 29//29 
f 29//29 34//34 35//35 30//30 
f 30//30 35//35 31//31 26//26 
s 10
f 31//31 36//36 37//37 32//32 
f 32//32 37//37 38//38 33//33 
f 33//33 38//38 39//39 34//34 
f 34//34 39//39 40//40 35//35 
f 35//35 40//40 36//36 31//31 
s 2
f 36//36 41//41 42//42 37//37 
f 37//37 42//42 43//43 38//38 
f 38//38 43//43 44//44 39//39 
f 39//39 44//44 45//45 40//40 
f 40//40 45//45 41//41 36//36 
s 4
f 41//41 46//46 47//47 42//42 
f 42//42 47//47 48//48 43//43 
f 43//43 48//48 49//49 44//44 
f 44//44 49//49 50//50 45//45 
f 45//45 50//50 46//46 41//41 
s 10
f 46//46 51//51 52//52 47//47 
f 47//47 52//52 53//53 48//48 
f 48//48 53//53 54//54 49//49 
f 49//49 54//54 55//55 50//50 
f 50//50 55//55 51//51 46//46 
s 6
f 51//51 56//56 57//57 52//52 
f 52//52 57//57 58//58 53//53 
f 53//53 58//58 59//59 54//54 
f 54//54 59//59 60//60 55//55 
f 55//55 60//60 56//56 51//51 
s 12
f 56//56 61//61 62//62 57//57 
f 57//57 62//62 63//63 58//58 
f 58//58 63//63 64//64 59//59 
f 59//59 64//64 65//65 60//60 
f 60//60 65//65 61//61 56//56 
s 10
f 61//61 66//66 67//67 62//62 
f 62//62 67//67 68//68 63//63 
f 63//63 68//68 69//69 64//64 
f 64//64 69//69 70//70 65//65 
f 65//65 70//70 66//66 61//61 
s 6
f 66//66 71//71 72//72 67//67 
f 67//67 72//72 73//73 68//68 
f 68//68 73//73 74//74 69//69 
f 69//69 74//74 75//75 70//70 
f 70//70 75//75 71//71 66//66 
s 12
f 71//71 76//76 77//77 72//72 
f 72//72 77//77 78//78 73//73 
f 73//73 78//78 79//79 74//74 
f 74//74 79//79 80//80 75//75 
f 75//75 80//80 76//76 71//71 
s 10
f 76//76 81//81 82//82 77//77 
f 77//77 82//82 83//83 78//78 
f 78//78 83//83 84//84 79//79 
f 79//79 84//84 85//85 80//80 
f 80//80 85//85 81//81 76//76 
s 6
f 81//81 86//86 87//87 82//82 
f 82//82 87//87 88//88 83//83 
f 83//83 88//88 89//89 84//84 
f 84//84 89//89 90//90 85//85 
f 85//85 90//90 86//86 81//81 
s 12
f 86//86 91//91 92//92 87//87 
f 87//87 92//92 93//93 88//88 
f 88//88 93//93 94//94 89//89 
f 89//89 94//94 95//95 90//90 
f 90//90 95//95 91//91 86//86 
s 8
f 91//91 96//96 97//97 92//92 
f 92//92 97//97 98//98 93//93 
f 93//93 98//98 99//99 94//94 
f 94//94 99//99 100//100 95//95 
f 95//95 100//100 96//96 91//91 
s 6
f 96//96 101//101 102//102 97//97 
f 97//97 102//102 103//103 98//98 
f 98//98 103//103 104//104 99//99 
f 99//99 104//104 105//105 100//100 
f 100//100 105//105 101//101 96//96 
s 12
f 101//101 106//106 107//107 102//102 
f 102//102 107//107 108//108 103//103 
f 103//103 108//108 109//109 104//104 
f 104//104 109//109 110//110 105//105 
f 105//105 110//110 106//106 101//101 
s 10
f 106//106 111//111 112//112 107//107 
f 107//107 112//112 113//113 108//108 
f 108//108 113//113 114//114 109//109 
f 109//109 114//114 115//115 110//110 
f 110//110 115//115 111//111 106//106 
s 6
f 111//111 116//116 117//117 112//112 
f 112//112 117//117 118//118 113//113 
f 113//113 118//118 119//119 114//114 
f 114//114 119//119 120//120 115//115 
f 115//115 120//120 116//116 111//111 
s 20
f 116//116 121//121 122//122 117//117 
f 117//117 122//122 123//123 118//118 
f 118//118 123//123 124//124 119//119 
f 119//119 124//124 125//125 120//120 
f 120//120 125//125 121//121 116//116 
s 16
f 121//121 1//1 4//4 122//122 
f 122//122 4//4 6//6 123//123 
f 123//123 6//6 8//8 124//124 
f 124//124 8//8 10//10 125//125 
f 125//125 10//10 1//1 121//121 
# 125 polygons

