# 3ds Max Wavefront OBJ Exporter v0.97b - (c)2007 guruware
# File Created: 22.04.2018 16:07:52

#
# object CLEM_2__Prop_Neon012
#

v  -1.8370 0.4575 -0.0473
v  -0.8576 1.1050 -0.0473
v  -0.7876 1.3391 0.1378
v  -2.0546 0.5014 0.1378
v  -0.7510 1.4615 -0.0905
v  -2.1684 0.5244 -0.0905
v  -0.5892 0.4803 -0.0473
v  -0.5192 0.7142 0.1378
v  -0.4826 0.8366 -0.0905
v  0.3562 1.1046 -0.0473
v  0.4271 1.3392 0.1378
v  0.4643 1.4619 -0.0905
v  0.6201 0.4798 -0.0473
v  0.6912 0.7143 0.1378
v  0.7284 0.8370 -0.0905
v  1.5667 1.1049 -0.0473
v  1.6373 1.3391 0.1378
v  1.6743 1.4616 -0.0905
v  1.8457 0.4501 -0.0473
v  2.0503 0.3693 0.1378
v  2.1574 0.3271 -0.0905
v  1.8344 0.4449 -0.0473
v  1.7516 0.2369 0.1378
v  1.7083 0.1281 -0.0905
v  1.5632 1.0921 -0.0473
v  1.4915 0.8576 0.1378
v  1.4540 0.7349 -0.0905
v  0.6122 0.4670 -0.0473
v  0.5410 0.2328 0.1378
v  0.5038 0.1103 -0.0905
v  0.3479 1.0924 -0.0473
v  0.2770 0.8575 0.1378
v  0.2399 0.7346 -0.0905
v  -0.5943 0.4673 -0.0473
v  -0.6647 0.2327 0.1378
v  -0.7016 0.1100 -0.0905
v  -0.8603 1.0915 -0.0473
v  -0.9310 0.8577 0.1378
v  -0.9680 0.7353 -0.0905
v  -1.8333 0.4520 -0.0473
v  -1.8774 0.2356 0.1378
v  -1.9005 0.1224 -0.0905
v  -1.8348 2.1406 -0.0473
v  -0.8554 2.7881 -0.0473
v  -0.7854 3.0222 0.1378
v  -2.0524 2.1846 0.1378
v  -0.7488 3.1446 -0.0905
v  -2.1662 2.2076 -0.0905
v  -0.5870 2.1634 -0.0473
v  -0.5170 2.3974 0.1378
v  -0.4804 2.5197 -0.0905
v  0.3584 2.7877 -0.0473
v  0.4293 3.0223 0.1378
v  0.4665 3.1450 -0.0905
v  0.6224 2.1629 -0.0473
v  0.6934 2.3975 0.1378
v  0.7305 2.5201 -0.0905
v  1.5691 2.7879 -0.0473
v  1.6396 3.0223 0.1378
v  1.6765 3.1448 -0.0905
v  1.8479 2.1332 -0.0473
v  2.0525 2.0525 0.1378
v  2.1596 2.0103 -0.0905
v  1.8365 2.1281 -0.0473
v  1.7538 1.9200 0.1378
v  1.7106 1.8112 -0.0905
v  1.5653 2.7751 -0.0473
v  1.4937 2.5407 0.1378
v  1.4562 2.4181 -0.0905
v  0.6122 2.1500 -0.0473
v  0.5410 1.9159 0.1378
v  0.5038 1.7935 -0.0905
v  0.3478 2.7756 -0.0473
v  0.2770 2.5406 0.1378
v  0.2400 2.4177 -0.0905
v  -0.5940 2.1507 -0.0473
v  -0.6648 1.9158 0.1378
v  -0.7018 1.7929 -0.0905
v  -0.8578 2.7750 -0.0473
v  -0.9289 2.5407 0.1378
v  -0.9661 2.4182 -0.0905
v  -1.8312 2.1351 -0.0473
v  -1.8752 1.9187 0.1378
v  -1.8982 1.8055 -0.0905
# 84 vertices

vn 0.8260 -0.1589 -0.5408
vn -0.2346 -0.7849 -0.5735
vn 0.1449 0.4847 0.8626
vn -0.4815 0.0973 0.8710
vn 0.2602 0.8707 -0.4172
vn -0.8790 0.1776 -0.4425
vn -0.2813 -0.9402 -0.1921
vn -0.0571 -0.1911 0.9799
vn 0.1321 0.4414 -0.8875
vn -0.2369 -0.7833 -0.5747
vn 0.1465 0.4846 0.8624
vn 0.2631 0.8703 -0.4164
vn -0.2843 -0.9394 -0.1915
vn -0.0575 -0.1915 0.9798
vn 0.1330 0.4397 -0.8882
vn -0.2352 -0.7844 -0.5740
vn 0.1456 0.4847 0.8625
vn 0.2620 0.8704 -0.4168
vn -0.7918 0.3018 -0.5310
vn 0.4554 -0.1793 0.8721
vn 0.8331 -0.3285 -0.4451
vn 0.3008 0.7829 -0.5446
vn -0.1819 -0.4581 0.8701
vn -0.3318 -0.8344 -0.4402
vn 0.2866 0.9387 -0.1915
vn 0.0581 0.1915 0.9798
vn -0.1340 -0.4391 -0.8884
vn 0.2373 0.7836 -0.5742
vn -0.1468 -0.4843 0.8625
vn -0.2641 -0.8698 -0.4167
vn 0.2832 0.9398 -0.1913
vn 0.0574 0.1918 0.9798
vn -0.1324 -0.4393 -0.8885
vn 0.2344 0.7842 -0.5745
vn -0.1451 -0.4849 0.8624
vn -0.2610 -0.8708 -0.4165
vn 0.2838 0.9394 -0.1921
vn 0.0574 0.1911 0.9799
vn -0.1331 -0.4409 -0.8876
vn 0.1608 0.8307 -0.5330
vn -0.0976 -0.4804 0.8716
vn -0.1787 -0.8781 -0.4439
vn 0.8263 -0.1664 -0.5380
vn -0.2368 -0.7834 -0.5747
vn 0.2632 0.8702 -0.4164
vn -0.2841 -0.9395 -0.1915
vn -0.0578 -0.1914 0.9798
vn 0.1330 0.4397 -0.8883
vn -0.2359 -0.7841 -0.5740
vn 0.1458 0.4846 0.8625
vn 0.2619 0.8704 -0.4168
vn -0.7868 0.3093 -0.5341
vn 0.4553 -0.1794 0.8721
vn 0.8331 -0.3284 -0.4451
vn 0.3099 0.7816 -0.5413
vn -0.1820 -0.4580 0.8701
vn -0.3317 -0.8344 -0.4402
vn 0.2870 0.9386 -0.1916
vn 0.0585 0.1912 0.9798
vn -0.1343 -0.4393 -0.8882
vn 0.2382 0.7835 -0.5740
vn -0.1472 -0.4841 0.8625
vn -0.2645 -0.8696 -0.4169
vn 0.2831 0.9398 -0.1913
vn 0.0577 0.1917 0.9798
vn -0.1323 -0.4393 -0.8885
vn 0.2359 0.7833 -0.5751
vn -0.1460 -0.4849 0.8623
vn -0.2623 -0.8707 -0.4161
vn 0.2851 0.9391 -0.1918
vn 0.0580 0.1912 0.9798
vn -0.1336 -0.4400 -0.8880
vn 0.1678 0.8276 -0.5357
vn -0.0977 -0.4804 0.8716
vn -0.1786 -0.8781 -0.4439
# 75 vertex normals

o CLEM_2__Prop_Neon012
g CLEM_2__Prop_Neon012
s 1
f 1//1 2//2 3//3 4//4 
f 4//4 3//3 5//5 6//6 
f 6//6 5//5 2//2 1//1 
s 2
f 2//2 7//7 8//8 3//3 
f 3//3 8//8 9//9 5//5 
f 5//5 9//9 7//7 2//2 
s 4
f 7//7 10//10 11//11 8//8 
f 8//8 11//11 12//12 9//9 
f 9//9 12//12 10//10 7//7 
s 8
f 10//10 13//13 14//14 11//11 
f 11//11 14//14 15//15 12//12 
f 12//12 15//15 13//13 10//10 
s 2
f 13//13 16//16 17//17 14//14 
f 14//14 17//17 18//18 15//15 
f 15//15 18//18 16//16 13//13 
s 4
f 16//16 19//19 20//20 17//17 
f 17//17 20//20 21//21 18//18 
f 18//18 21//21 19//19 16//16 
s 8
f 19//19 22//22 23//23 20//20 
f 20//20 23//23 24//24 21//21 
f 21//21 24//24 22//22 19//19 
s 2
f 22//22 25//25 26//26 23//23 
f 23//23 26//26 27//27 24//24 
f 24//24 27//27 25//25 22//22 
s 4
f 25//25 28//28 29//29 26//26 
f 26//26 29//29 30//30 27//27 
f 27//27 30//30 28//28 25//25 
s 8
f 28//28 31//31 32//32 29//29 
f 29//29 32//32 33//33 30//30 
f 30//30 33//33 31//31 28//28 
s 2
f 31//31 34//34 35//35 32//32 
f 32//32 35//35 36//36 33//33 
f 33//33 36//36 34//34 31//31 
s 4
f 34//34 37//37 38//38 35//35 
f 35//35 38//38 39//39 36//36 
f 36//36 39//39 37//37 34//34 
s 8
f 37//37 40//40 41//41 38//38 
f 38//38 41//41 42//42 39//39 
f 39//39 42//42 40//40 37//37 
s 16
f 40//40 1//1 4//4 41//41 
f 41//41 4//4 6//6 42//42 
f 42//42 6//6 1//1 40//40 
s 1
f 43//43 44//2 45//3 46//4 
f 46//4 45//3 47//5 48//6 
f 48//6 47//5 44//2 43//43 
s 2
f 44//2 49//7 50//8 45//3 
f 45//3 50//8 51//9 47//5 
f 47//5 51//9 49//7 44//2 
s 4
f 49//7 52//44 53//11 50//8 
f 50//8 53//11 54//45 51//9 
f 51//9 54//45 52//44 49//7 
s 8
f 52//44 55//46 56//47 53//11 
f 53//11 56//47 57//48 54//45 
f 54//45 57//48 55//46 52//44 
s 2
f 55//46 58//49 59//50 56//47 
f 56//47 59//50 60//51 57//48 
f 57//48 60//51 58//49 55//46 
s 4
f 58//49 61//52 62//53 59//50 
f 59//50 62//53 63//54 60//51 
f 60//51 63//54 61//52 58//49 
s 8
f 61//52 64//55 65//56 62//53 
f 62//53 65//56 66//57 63//54 
f 63//54 66//57 64//55 61//52 
s 2
f 64//55 67//58 68//59 65//56 
f 65//56 68//59 69//60 66//57 
f 66//57 69//60 67//58 64//55 
s 4
f 67//58 70//61 71//62 68//59 
f 68//59 71//62 72//63 69//60 
f 69//60 72//63 70//61 67//58 
s 8
f 70//61 73//64 74//65 71//62 
f 71//62 74//65 75//66 72//63 
f 72//63 75//66 73//64 70//61 
s 2
f 73//64 76//67 77//68 74//65 
f 74//65 77//68 78//69 75//66 
f 75//66 78//69 76//67 73//64 
s 4
f 76//67 79//70 80//71 77//68 
f 77//68 80//71 81//72 78//69 
f 78//69 81//72 79//70 76//67 
s 8
f 79//70 82//73 83//74 80//71 
f 80//71 83//74 84//75 81//72 
f 81//72 84//75 82//73 79//70 
s 16
f 82//73 43//43 46//4 83//74 
f 83//74 46//4 48//6 84//75 
f 84//75 48//6 43//43 82//73 
# 84 polygons

