# 3ds Max Wavefront OBJ Exporter v0.97b - (c)2007 guruware
# File Created: 20.04.2018 16:28:47

#
# object CLEM_2__Prop_Neon005
#

v  -0.0656 0.3063 -0.0000
v  -0.4131 -0.3448 -0.0000
v  -0.4067 -0.3394 0.0113
v  -0.0629 0.3049 0.0113
v  -0.3894 -0.3245 0.0195
v  -0.0557 0.3009 0.0195
v  -0.3658 -0.3042 0.0225
v  -0.0458 0.2955 0.0225
v  -0.3422 -0.2838 0.0195
v  -0.0359 0.2900 0.0195
v  -0.3249 -0.2689 0.0113
v  -0.0287 0.2861 0.0113
v  -0.3186 -0.2635 -0.0000
v  -0.0261 0.2846 -0.0000
v  -0.3249 -0.2689 -0.0113
v  -0.0287 0.2861 -0.0113
v  -0.3422 -0.2838 -0.0195
v  -0.0359 0.2900 -0.0195
v  -0.3658 -0.3042 -0.0225
v  -0.0458 0.2955 -0.0225
v  -0.3894 -0.3245 -0.0195
v  -0.0557 0.3009 -0.0195
v  -0.4067 -0.3394 -0.0113
v  -0.0629 0.3049 -0.0113
v  -0.0374 -0.2116 -0.0000
v  -0.0313 -0.2063 0.0113
v  -0.0147 -0.1917 0.0195
v  0.0079 -0.1717 0.0225
v  0.0305 -0.1517 0.0195
v  0.0471 -0.1371 0.0113
v  0.0531 -0.1317 -0.0000
v  0.0471 -0.1371 -0.0113
v  0.0305 -0.1517 -0.0195
v  0.0079 -0.1717 -0.0225
v  -0.0147 -0.1917 -0.0195
v  -0.0313 -0.2063 -0.0113
v  -0.4005 -0.9362 -0.0000
v  -0.3861 -0.9142 0.0113
v  -0.3468 -0.8541 0.0195
v  -0.2930 -0.7720 0.0225
v  -0.2392 -0.6899 0.0195
v  -0.1999 -0.6298 0.0113
v  -0.1855 -0.6078 -0.0000
v  -0.1999 -0.6298 -0.0113
v  -0.2392 -0.6899 -0.0195
v  -0.2930 -0.7720 -0.0225
v  -0.3468 -0.8541 -0.0195
v  -0.3861 -0.9142 -0.0113
v  0.4401 0.0722 -0.0000
v  0.4323 0.0676 0.0113
v  0.4110 0.0550 0.0195
v  0.3820 0.0378 0.0225
v  0.3529 0.0205 0.0195
v  0.3317 0.0079 0.0113
v  0.3239 0.0033 -0.0000
v  0.3317 0.0079 -0.0113
v  0.3529 0.0205 -0.0195
v  0.3820 0.0378 -0.0225
v  0.4110 0.0550 -0.0195
v  0.4323 0.0676 -0.0113
v  0.0106 -0.0126 -0.0000
v  0.0043 -0.0170 0.0113
v  -0.0129 -0.0288 0.0195
v  -0.0364 -0.0449 0.0225
v  -0.0599 -0.0611 0.0195
v  -0.0772 -0.0729 0.0113
v  -0.0835 -0.0772 -0.0000
v  -0.0772 -0.0729 -0.0113
v  -0.0599 -0.0611 -0.0195
v  -0.0364 -0.0449 -0.0225
v  -0.0129 -0.0288 -0.0195
v  0.0043 -0.0170 -0.0113
v  0.3006 0.4615 -0.0000
v  0.2977 0.4605 0.0113
v  0.2895 0.4576 0.0195
v  0.2784 0.4537 0.0225
v  0.2673 0.4498 0.0195
v  0.2592 0.4469 0.0113
v  0.2562 0.4459 -0.0000
v  0.2592 0.4469 -0.0113
v  0.2673 0.4498 -0.0195
v  0.2784 0.4537 -0.0225
v  0.2895 0.4576 -0.0195
v  0.2977 0.4605 -0.0113
v  0.0658 0.5273 -0.0000
v  0.0667 0.5244 0.0113
v  0.0693 0.5165 0.0195
v  0.0728 0.5058 0.0225
v  0.0763 0.4951 0.0195
v  0.0788 0.4872 0.0113
v  0.0797 0.4843 -0.0000
v  0.0788 0.4872 -0.0113
v  0.0763 0.4951 -0.0195
v  0.0728 0.5058 -0.0225
v  0.0693 0.5165 -0.0195
v  0.0667 0.5244 -0.0113
# 96 vertices

vn -0.8711 0.4911 0.0000
vn -0.7579 -0.6523 0.0000
vn -0.5266 -0.4532 0.7193
vn -0.7558 0.4246 0.4985
vn -0.2296 -0.1976 0.9530
vn -0.4388 0.2442 0.8648
vn -0.0554 -0.0477 0.9973
vn -0.0017 0.0009 1.0000
vn 0.0962 0.0828 0.9919
vn 0.4393 -0.2374 0.8664
vn 0.3280 0.2823 0.9015
vn 0.7639 -0.4080 0.5000
vn 0.7579 0.6523 0.0000
vn 0.8829 -0.4695 0.0000
vn 0.3280 0.2823 -0.9015
vn 0.7639 -0.4080 -0.5000
vn 0.0962 0.0828 -0.9919
vn 0.4393 -0.2374 -0.8664
vn -0.0554 -0.0477 -0.9973
vn -0.0017 0.0009 -1.0000
vn -0.2296 -0.1976 -0.9530
vn -0.4388 0.2442 -0.8648
vn -0.5266 -0.4532 -0.7193
vn -0.7558 0.4246 -0.4985
vn -0.7495 -0.6620 0.0000
vn -0.3343 -0.2952 0.8950
vn -0.0990 -0.0874 0.9912
vn 0.0560 0.0494 0.9972
vn 0.2329 0.2056 0.9505
vn 0.5268 0.4653 0.7113
vn 0.7495 0.6620 -0.0000
vn 0.5268 0.4653 -0.7113
vn 0.2329 0.2056 -0.9505
vn 0.0560 0.0494 -0.9972
vn -0.0990 -0.0874 -0.9912
vn -0.3343 -0.2952 -0.8950
vn -0.5478 -0.8366 -0.0000
vn -0.1967 -0.3004 0.9333
vn -0.0602 -0.0919 0.9939
vn -0.0156 -0.0238 0.9996
vn 0.0186 0.0284 0.9994
vn 0.0708 0.1081 0.9916
vn 0.5478 0.8366 -0.0000
vn 0.0708 0.1081 -0.9916
vn 0.0186 0.0284 -0.9994
vn -0.0156 -0.0238 -0.9996
vn -0.0602 -0.0919 -0.9939
vn -0.1967 -0.3004 -0.9333
vn 0.8600 0.5103 -0.0000
vn 0.5797 0.3440 0.7387
vn 0.2446 0.1451 0.9587
vn 0.0596 0.0353 0.9976
vn -0.0991 -0.0588 0.9933
vn -0.3448 -0.2046 0.9161
vn -0.8600 -0.5103 0.0000
vn -0.3448 -0.2046 -0.9161
vn -0.0991 -0.0588 -0.9933
vn 0.0596 0.0353 -0.9976
vn 0.2446 0.1451 -0.9587
vn 0.5797 0.3440 -0.7387
vn 0.8179 0.5754 0.0000
vn 0.3829 0.2734 0.8824
vn 0.1156 0.0821 0.9899
vn -0.0638 -0.0438 0.9970
vn -0.2701 -0.1799 0.9459
vn -0.5945 -0.4007 0.6972
vn -0.8274 -0.5617 -0.0000
vn -0.5945 -0.4007 -0.6972
vn -0.2701 -0.1799 -0.9459
vn -0.0638 -0.0438 -0.9970
vn 0.1156 0.0821 -0.9899
vn 0.3829 0.2734 -0.8824
vn 0.9256 0.3785 -0.0053
vn 0.8165 0.3527 0.4571
vn 0.5197 0.2712 0.8101
vn 0.1070 0.1428 0.9840
vn -0.3393 -0.0837 0.9369
vn -0.7491 -0.2862 0.5975
vn -0.9331 -0.3593 0.0109
vn -0.7591 -0.2926 -0.5815
vn -0.3418 -0.1198 -0.9321
vn 0.1184 0.0820 -0.9896
vn 0.5267 0.2329 -0.8175
vn 0.8183 0.3358 -0.4665
vn -0.3535 0.9354 0.0063
vn -0.3164 0.8260 0.4665
vn -0.2114 0.5253 0.8242
vn -0.0352 0.0954 0.9948
vn 0.1941 -0.3736 0.9071
vn 0.3772 -0.7531 0.5389
vn 0.4504 -0.8928 -0.0102
vn 0.3998 -0.7325 -0.5510
vn 0.2245 -0.3518 -0.9088
vn -0.0200 0.1091 -0.9938
vn -0.2117 0.5335 -0.8189
vn -0.3198 0.8305 -0.4561
# 96 vertex normals

o CLEM_2__Prop_Neon005
g CLEM_2__Prop_Neon005
s 10
f 1//1 2//2 3//3 4//4 
s 6
f 4//4 3//3 5//5 6//6 
s 119
f 6//6 5//5 7//7 8//8 
s 122
f 8//8 7//7 9//9 10//10 
s 10
f 10//10 9//9 11//11 12//12 
f 12//12 11//11 13//13 14//14 
s 2
f 14//14 13//13 15//15 16//16 
s 6
f 16//16 15//15 17//17 18//18 
s 127
f 18//18 17//17 19//19 20//20 
s 122
f 20//20 19//19 21//21 22//22 
s 10
f 22//22 21//21 23//23 24//24 
f 24//24 23//23 2//2 1//1 
s 148
f 2//2 25//25 26//26 3//3 
s 48
f 3//3 26//26 27//27 5//5 
s 504
f 5//5 27//27 28//28 7//7 
s 492
f 7//7 28//28 29//29 9//9 
s 132
f 9//9 29//29 30//30 11//11 
s 148
f 11//11 30//30 31//31 13//13 
s 16
f 13//13 31//31 32//32 15//15 
s 24
f 15//15 32//32 33//33 17//17 
s 504
f 17//17 33//33 34//34 19//19 
s 484
f 19//19 34//34 35//35 21//21 
s 132
f 21//21 35//35 36//36 23//23 
f 23//23 36//36 25//25 2//2 
s 2
f 25//25 37//37 38//38 26//26 
s 10
f 26//26 38//38 39//39 27//27 
s 972
f 27//27 39//39 40//40 28//28 
s 966
f 28//28 40//40 41//41 29//29 
s 2
f 29//29 41//41 42//42 30//30 
f 30//30 42//42 43//43 31//31 
f 31//31 43//43 44//44 32//32 
s 98
f 32//32 44//44 45//45 33//33 
s 2020
f 33//33 45//45 46//46 34//34 
s 1926
f 34//34 46//46 47//47 35//35 
s 2
f 35//35 47//47 48//48 36//36 
f 36//36 48//48 37//37 25//25 
s 28
f 37//37 49//49 50//50 38//38 
s 68
f 38//38 50//50 51//51 39//39 
s 756
f 39//39 51//51 52//52 40//40 
s 760
f 40//40 52//52 53//53 41//41 
s 8
f 41//41 53//53 54//54 42//42 
s 12
f 42//42 54//54 55//55 43//43 
s 4
f 43//43 55//55 56//56 44//44 
s 260
f 44//44 56//56 57//57 45//45 
s 3996
f 45//45 57//57 58//58 46//46 
s 3736
f 46//46 58//58 59//59 47//47 
s 24
f 47//47 59//59 60//60 48//48 
f 48//48 60//60 49//49 37//37 
s 2
f 49//49 61//61 62//62 50//50 
s 34
f 50//50 62//62 63//63 51//51 
s 184
f 51//51 63//63 64//64 52//52 
s 154
f 52//52 64//64 65//65 53//53 
s 2
f 53//53 65//65 66//66 54//54 
f 54//54 66//66 67//67 55//55 
f 55//55 67//67 68//68 56//56 
s 26
f 56//56 68//68 69//69 57//57 
s 2232
f 57//57 69//69 70//70 58//58 
s 2210
f 58//58 70//70 71//71 59//59 
s 2
f 59//59 71//71 72//72 60//60 
f 60//60 72//72 61//61 49//49 
s 28
f 61//61 73//73 74//74 62//62 
s 205
f 62//62 74//74 75//75 63//63 
s 137
f 63//63 75//75 76//76 64//64 
s 189
f 64//64 76//76 77//77 65//65 
s 36
f 65//65 77//77 78//78 66//66 
s 61
f 66//66 78//78 79//79 67//67 
s 212
f 67//67 79//79 80//80 68//68 
s 357
f 68//68 80//80 81//81 69//69 
s 288
f 69//69 81//81 82//82 70//70 
s 2237
f 70//70 82//82 83//83 71//71 
s 28
f 71//71 83//83 84//84 72//72 
s 184
f 72//72 84//84 73//73 61//61 
s 3
f 85//85 1//1 4//4 86//86 
s 7
f 86//86 4//4 6//6 87//87 
f 87//87 6//6 8//8 88//88 
s 11
f 88//88 8//8 10//10 89//89 
f 89//89 10//10 12//12 90//90 
f 90//90 12//12 14//14 91//91 
s 3
f 91//91 14//14 16//16 92//92 
s 7
f 92//92 16//16 18//18 93//93 
f 93//93 18//18 20//20 94//94 
s 11
f 94//94 20//20 22//22 95//95 
f 95//95 22//22 24//24 96//96 
f 96//96 24//24 1//1 85//85 
s 512
f 80//80 79//79 93//93 94//94 
f 79//79 78//78 92//92 93//93 
f 78//78 77//77 91//91 92//92 
f 77//77 76//76 90//90 91//91 
f 76//76 75//75 89//89 90//90 
f 75//75 74//74 88//88 89//89 
f 74//74 73//73 87//87 88//88 
f 73//73 84//84 86//86 87//87 
f 84//84 83//83 85//85 86//86 
f 83//83 82//82 96//96 85//85 
f 82//82 81//81 95//95 96//96 
f 81//81 80//80 94//94 95//95 
# 96 polygons

