# 3ds Max Wavefront OBJ Exporter v0.97b - (c)2007 guruware
# File Created: 22.04.2018 16:09:47

#
# object CLEM_2__Prop_Neon015
#

v  0.0000 5.8332 -0.0415
v  -0.0353 5.9591 -0.0415
v  0.0161 5.9767 0.1447
v  -0.0004 6.0357 0.1447
v  0.1998 6.0397 0.1507
v  -0.0017 6.7591 0.1507
v  0.2619 6.0610 -0.0319
v  -0.0022 7.0037 -0.0319
v  0.1166 6.0112 -0.1507
v  -0.0011 6.4314 -0.1507
v  0.1001 5.6274 -0.0415
v  0.1487 5.6520 0.1447
v  0.3222 5.7399 0.1507
v  0.3809 5.7696 -0.0319
v  0.2436 5.7001 -0.1507
v  0.2815 5.3312 -0.0415
v  0.3260 5.3624 0.1447
v  0.4849 5.4742 0.1507
v  0.5386 5.5120 -0.0319
v  0.4129 5.4236 -0.1507
v  0.5307 5.0209 -0.0415
v  0.5720 5.0561 0.1447
v  0.7197 5.1818 0.1507
v  0.7697 5.2243 -0.0319
v  0.6528 5.1249 -0.1507
v  0.6056 4.9378 -0.0415
v  0.6485 4.9713 0.1447
v  0.8017 5.0909 0.1507
v  0.8534 5.1314 -0.0319
v  0.7323 5.0367 -0.1507
v  0.8526 4.5709 -0.0415
v  0.9033 4.5927 0.1447
v  1.0845 4.6707 0.1507
v  1.1457 4.6971 -0.0319
v  1.0024 4.6354 -0.1507
v  0.9288 4.2309 -0.0415
v  0.9843 4.2316 0.1447
v  1.1824 4.2344 0.1507
v  1.2493 4.2353 -0.0319
v  1.0926 4.2331 -0.1507
v  0.8611 3.8840 -0.0415
v  0.9122 3.8624 0.1447
v  1.0948 3.7855 0.1507
v  1.1565 3.7596 -0.0319
v  1.0121 3.8204 -0.1507
v  0.6558 3.5867 -0.0415
v  0.6946 3.5474 0.1447
v  0.8333 3.4071 0.1507
v  0.8802 3.3597 -0.0319
v  0.7705 3.4707 -0.1507
v  0.3542 3.3834 -0.0415
v  0.3753 3.3321 0.1447
v  0.4507 3.1491 0.1507
v  0.4762 3.0873 -0.0319
v  0.4165 3.2320 -0.1507
v  -0.0010 3.3157 -0.0415
v  -0.0011 3.2604 0.1447
v  -0.0011 3.0631 0.1507
v  -0.0012 2.9963 -0.0319
v  -0.0011 3.1525 -0.1507
v  -0.3546 3.3833 -0.0415
v  -0.3758 3.3321 0.1447
v  -0.4513 3.1492 0.1507
v  -0.4768 3.0873 -0.0319
v  -0.4171 3.2320 -0.1507
v  -0.6557 3.5867 -0.0415
v  -0.6946 3.5474 0.1447
v  -0.8333 3.4072 0.1507
v  -0.8802 3.3597 -0.0319
v  -0.7705 3.4707 -0.1507
v  -0.8611 3.8840 -0.0415
v  -0.9122 3.8624 0.1447
v  -1.0948 3.7855 0.1507
v  -1.1565 3.7596 -0.0319
v  -1.0121 3.8204 -0.1507
v  -0.9288 4.2309 -0.0415
v  -0.9843 4.2316 0.1447
v  -1.1824 4.2344 0.1507
v  -1.2493 4.2353 -0.0319
v  -1.0926 4.2331 -0.1507
v  -0.8526 4.5709 -0.0415
v  -0.9033 4.5927 0.1447
v  -1.0845 4.6707 0.1507
v  -1.1457 4.6971 -0.0319
v  -1.0024 4.6354 -0.1507
v  -0.6056 4.9378 -0.0415
v  -0.6485 4.9713 0.1447
v  -0.8017 5.0909 0.1507
v  -0.8534 5.1314 -0.0319
v  -0.7323 5.0367 -0.1507
v  -0.5307 5.0209 -0.0415
v  -0.5720 5.0561 0.1447
v  -0.7197 5.1818 0.1507
v  -0.7697 5.2243 -0.0319
v  -0.6528 5.1249 -0.1507
v  -0.2815 5.3312 -0.0415
v  -0.3260 5.3624 0.1447
v  -0.4849 5.4742 0.1507
v  -0.5386 5.5120 -0.0319
v  -0.4129 5.4236 -0.1507
v  -0.1000 5.6276 -0.0415
v  -0.1486 5.6521 0.1447
v  -0.3223 5.7398 0.1507
v  -0.3810 5.7695 -0.0319
v  -0.2436 5.7001 -0.1507
v  0.0349 5.9595 -0.0415
v  -0.0166 5.9770 0.1447
v  -0.2005 6.0395 0.1507
v  -0.2626 6.0606 -0.0319
v  -0.1172 6.0112 -0.1507
v  0.0000 0.8332 -0.0415
v  -0.0353 0.9591 -0.0415
v  0.0161 0.9767 0.1447
v  -0.0004 1.0357 0.1447
v  0.1998 1.0397 0.1507
v  -0.0017 1.7591 0.1507
v  0.2619 1.0610 -0.0319
v  -0.0022 2.0037 -0.0319
v  0.1166 1.0112 -0.1507
v  -0.0011 1.4314 -0.1507
v  0.1001 0.6274 -0.0415
v  0.1487 0.6520 0.1447
v  0.3222 0.7399 0.1507
v  0.3809 0.7696 -0.0319
v  0.2436 0.7001 -0.1507
v  0.2815 0.3312 -0.0415
v  0.3260 0.3624 0.1447
v  0.4849 0.4742 0.1507
v  0.5386 0.5120 -0.0319
v  0.4129 0.4236 -0.1507
v  0.5307 0.0209 -0.0415
v  0.5720 0.0561 0.1447
v  0.7197 0.1818 0.1507
v  0.7697 0.2243 -0.0319
v  0.6528 0.1249 -0.1507
v  0.6056 -0.0622 -0.0415
v  0.6485 -0.0287 0.1447
v  0.8017 0.0909 0.1507
v  0.8534 0.1314 -0.0319
v  0.7323 0.0367 -0.1507
v  0.8526 -0.4291 -0.0415
v  0.9033 -0.4073 0.1447
v  1.0845 -0.3293 0.1507
v  1.1457 -0.3029 -0.0319
v  1.0024 -0.3646 -0.1507
v  0.9288 -0.7691 -0.0415
v  0.9843 -0.7684 0.1447
v  1.1824 -0.7656 0.1507
v  1.2493 -0.7647 -0.0319
v  1.0926 -0.7669 -0.1507
v  0.8611 -1.1160 -0.0415
v  0.9122 -1.1376 0.1447
v  1.0948 -1.2145 0.1507
v  1.1565 -1.2405 -0.0319
v  1.0121 -1.1796 -0.1507
v  0.6558 -1.4133 -0.0415
v  0.6946 -1.4526 0.1447
v  0.8333 -1.5929 0.1507
v  0.8802 -1.6403 -0.0319
v  0.7705 -1.5293 -0.1507
v  0.3542 -1.6166 -0.0415
v  0.3753 -1.6679 0.1447
v  0.4507 -1.8509 0.1507
v  0.4762 -1.9127 -0.0319
v  0.4165 -1.7680 -0.1507
v  -0.0010 -1.6843 -0.0415
v  -0.0011 -1.7396 0.1447
v  -0.0011 -1.9369 0.1507
v  -0.0012 -2.0037 -0.0319
v  -0.0011 -1.8475 -0.1507
v  -0.3546 -1.6167 -0.0415
v  -0.3758 -1.6679 0.1447
v  -0.4513 -1.8508 0.1507
v  -0.4768 -1.9127 -0.0319
v  -0.4171 -1.7680 -0.1507
v  -0.6557 -1.4133 -0.0415
v  -0.6946 -1.4526 0.1447
v  -0.8333 -1.5928 0.1507
v  -0.8802 -1.6403 -0.0319
v  -0.7705 -1.5293 -0.1507
v  -0.8611 -1.1160 -0.0415
v  -0.9122 -1.1376 0.1447
v  -1.0948 -1.2145 0.1507
v  -1.1565 -1.2405 -0.0319
v  -1.0121 -1.1796 -0.1507
v  -0.9288 -0.7691 -0.0415
v  -0.9843 -0.7684 0.1447
v  -1.1824 -0.7656 0.1507
v  -1.2493 -0.7647 -0.0319
v  -1.0926 -0.7669 -0.1507
v  -0.8526 -0.4291 -0.0415
v  -0.9033 -0.4073 0.1447
v  -1.0845 -0.3293 0.1507
v  -1.1457 -0.3029 -0.0319
v  -1.0024 -0.3646 -0.1507
v  -0.6056 -0.0622 -0.0415
v  -0.6485 -0.0287 0.1447
v  -0.8017 0.0909 0.1507
v  -0.8534 0.1314 -0.0319
v  -0.7323 0.0367 -0.1507
v  -0.5307 0.0209 -0.0415
v  -0.5720 0.0561 0.1447
v  -0.7197 0.1818 0.1507
v  -0.7697 0.2243 -0.0319
v  -0.6528 0.1249 -0.1507
v  -0.2815 0.3312 -0.0415
v  -0.3260 0.3624 0.1447
v  -0.4849 0.4742 0.1507
v  -0.5386 0.5120 -0.0319
v  -0.4129 0.4236 -0.1507
v  -0.1000 0.6276 -0.0415
v  -0.1486 0.6521 0.1447
v  -0.3223 0.7398 0.1507
v  -0.3810 0.7695 -0.0319
v  -0.2436 0.7001 -0.1507
v  0.0349 0.9595 -0.0415
v  -0.0166 0.9770 0.1447
v  -0.2005 1.0395 0.1507
v  -0.2626 1.0606 -0.0319
v  -0.1172 1.0112 -0.1507
v  0.0000 -4.1668 -0.0415
v  -0.0353 -4.0409 -0.0415
v  0.0161 -4.0233 0.1447
v  -0.0004 -3.9643 0.1447
v  0.1998 -3.9603 0.1507
v  -0.0017 -3.2409 0.1507
v  0.2619 -3.9390 -0.0319
v  -0.0022 -2.9963 -0.0319
v  0.1166 -3.9888 -0.1507
v  -0.0011 -3.5686 -0.1507
v  0.1001 -4.3725 -0.0415
v  0.1487 -4.3480 0.1447
v  0.3222 -4.2601 0.1507
v  0.3809 -4.2304 -0.0319
v  0.2436 -4.2999 -0.1507
v  0.2815 -4.6688 -0.0415
v  0.3260 -4.6376 0.1447
v  0.4849 -4.5258 0.1507
v  0.5386 -4.4880 -0.0319
v  0.4129 -4.5764 -0.1507
v  0.5307 -4.9791 -0.0415
v  0.5720 -4.9439 0.1447
v  0.7197 -4.8182 0.1507
v  0.7697 -4.7757 -0.0319
v  0.6528 -4.8751 -0.1507
v  0.6056 -5.0622 -0.0415
v  0.6485 -5.0287 0.1447
v  0.8016 -4.9091 0.1507
v  0.8534 -4.8686 -0.0319
v  0.7323 -4.9633 -0.1507
v  0.8526 -5.4291 -0.0415
v  0.9033 -5.4073 0.1447
v  1.0845 -5.3293 0.1507
v  1.1457 -5.3029 -0.0319
v  1.0024 -5.3646 -0.1507
v  0.9288 -5.7691 -0.0415
v  0.9843 -5.7684 0.1447
v  1.1824 -5.7656 0.1507
v  1.2493 -5.7647 -0.0319
v  1.0926 -5.7669 -0.1507
v  0.8611 -6.1160 -0.0415
v  0.9122 -6.1376 0.1447
v  1.0948 -6.2145 0.1507
v  1.1565 -6.2404 -0.0319
v  1.0121 -6.1796 -0.1507
v  0.6558 -6.4133 -0.0415
v  0.6946 -6.4526 0.1447
v  0.8333 -6.5929 0.1507
v  0.8802 -6.6403 -0.0319
v  0.7705 -6.5293 -0.1507
v  0.3542 -6.6166 -0.0415
v  0.3753 -6.6679 0.1447
v  0.4507 -6.8509 0.1507
v  0.4762 -6.9127 -0.0319
v  0.4165 -6.7680 -0.1507
v  -0.0010 -6.6843 -0.0415
v  -0.0011 -6.7396 0.1447
v  -0.0011 -6.9369 0.1507
v  -0.0012 -7.0037 -0.0319
v  -0.0011 -6.8475 -0.1507
v  -0.3546 -6.6167 -0.0415
v  -0.3758 -6.6679 0.1447
v  -0.4513 -6.8508 0.1507
v  -0.4768 -6.9127 -0.0319
v  -0.4171 -6.7680 -0.1507
v  -0.6557 -6.4133 -0.0415
v  -0.6946 -6.4526 0.1447
v  -0.8333 -6.5928 0.1507
v  -0.8803 -6.6403 -0.0319
v  -0.7705 -6.5293 -0.1507
v  -0.8611 -6.1160 -0.0415
v  -0.9122 -6.1376 0.1447
v  -1.0948 -6.2145 0.1507
v  -1.1565 -6.2404 -0.0319
v  -1.0121 -6.1796 -0.1507
v  -0.9288 -5.7691 -0.0415
v  -0.9843 -5.7684 0.1447
v  -1.1824 -5.7656 0.1507
v  -1.2493 -5.7647 -0.0319
v  -1.0926 -5.7669 -0.1507
v  -0.8526 -5.4291 -0.0415
v  -0.9033 -5.4073 0.1447
v  -1.0845 -5.3293 0.1507
v  -1.1457 -5.3029 -0.0319
v  -1.0024 -5.3646 -0.1507
v  -0.6056 -5.0622 -0.0415
v  -0.6485 -5.0287 0.1447
v  -0.8016 -4.9091 0.1507
v  -0.8534 -4.8686 -0.0319
v  -0.7323 -4.9633 -0.1507
v  -0.5307 -4.9791 -0.0415
v  -0.5720 -4.9439 0.1447
v  -0.7197 -4.8182 0.1507
v  -0.7697 -4.7757 -0.0319
v  -0.6528 -4.8751 -0.1507
v  -0.2815 -4.6688 -0.0415
v  -0.3260 -4.6376 0.1447
v  -0.4849 -4.5258 0.1507
v  -0.5386 -4.4880 -0.0319
v  -0.4129 -4.5764 -0.1507
v  -0.1000 -4.3724 -0.0415
v  -0.1486 -4.3479 0.1447
v  -0.3223 -4.2602 0.1507
v  -0.3810 -4.2305 -0.0319
v  -0.2436 -4.2999 -0.1507
v  0.0349 -4.0405 -0.0415
v  -0.0166 -4.0230 0.1447
v  -0.2005 -3.9605 0.1507
v  -0.2626 -3.9394 -0.0319
v  -0.1172 -3.9888 -0.1507
# 330 vertices

vn -0.0019 0.9811 0.1936
vn 0.5710 -0.7866 0.2352
vn -0.5913 -0.2028 0.7806
vn 0.0001 -0.0726 0.9974
vn 0.5180 0.1777 0.8367
vn -0.0009 0.4888 0.8724
vn 0.9064 0.3109 -0.2859
vn -0.0019 0.9887 -0.1499
vn 0.0087 0.0030 -1.0000
vn -0.0003 0.1632 -0.9866
vn -0.8426 -0.4264 -0.3289
vn -0.5622 -0.2845 0.7765
vn 0.4827 0.2443 0.8410
vn 0.8543 0.4323 -0.2886
vn 0.0003 0.0001 -1.0000
vn -0.7719 -0.5430 -0.3308
vn -0.5124 -0.3604 0.7795
vn 0.4465 0.3141 0.8379
vn 0.7836 0.5512 -0.2866
vn 0.0055 0.0039 -1.0000
vn -0.7176 -0.6108 -0.3346
vn -0.4712 -0.4010 0.7856
vn 0.4229 0.3600 0.8316
vn 0.7305 0.6217 -0.2828
vn 0.0151 0.0129 -0.9998
vn -0.7392 -0.5773 -0.3469
vn -0.4688 -0.3662 0.8038
vn 0.4571 0.3570 0.8146
vn 0.7582 0.5921 -0.2732
vn 0.0448 0.0350 -0.9984
vn -0.8555 -0.3683 -0.3640
vn -0.5170 -0.2226 0.8265
vn 0.5553 0.2391 0.7965
vn 0.8859 0.3814 -0.2640
vn 0.0905 0.0390 -0.9951
vn -0.9299 -0.0130 -0.3675
vn -0.5566 -0.0078 0.8307
vn 0.6085 0.0085 0.7935
vn 0.9648 0.0135 -0.2625
vn 0.1058 0.0015 -0.9944
vn -0.8571 0.3610 -0.3674
vn -0.5132 0.2162 0.8306
vn 0.5607 -0.2362 0.7936
vn 0.8892 -0.3746 -0.2626
vn 0.0972 -0.0410 -0.9944
vn -0.6548 0.6623 -0.3641
vn -0.3957 0.4002 0.8266
vn 0.4252 -0.4300 0.7964
vn 0.6781 -0.6859 -0.2639
vn 0.0694 -0.0702 -0.9951
vn -0.3543 0.8602 -0.3668
vn -0.2125 0.5159 0.8299
vn 0.2315 -0.5620 0.7941
vn 0.3675 -0.8921 -0.2628
vn 0.0397 -0.0965 -0.9945
vn 0.0003 0.9312 -0.3645
vn 0.0002 0.5621 0.8271
vn -0.0002 -0.6052 0.7961
vn -0.0004 -0.9646 -0.2638
vn -0.0000 -0.0995 -0.9950
vn 0.3549 0.8599 -0.3668
vn 0.2129 0.5157 0.8299
vn -0.2319 -0.5618 0.7941
vn -0.3681 -0.8919 -0.2628
vn -0.0398 -0.0964 -0.9945
vn 0.6551 0.6621 -0.3641
vn 0.3959 0.4001 0.8266
vn -0.4253 -0.4298 0.7965
vn -0.6784 -0.6856 -0.2640
vn -0.0693 -0.0701 -0.9951
vn 0.8571 0.3610 -0.3674
vn 0.5132 0.2162 0.8306
vn -0.5607 -0.2362 0.7936
vn -0.8892 -0.3746 -0.2626
vn -0.0972 -0.0410 -0.9944
vn 0.9299 -0.0130 -0.3675
vn 0.5566 -0.0078 0.8307
vn -0.6085 0.0085 0.7935
vn -0.9648 0.0135 -0.2625
vn -0.1058 0.0015 -0.9944
vn 0.8555 -0.3683 -0.3640
vn 0.5170 -0.2226 0.8265
vn -0.5553 0.2391 0.7965
vn -0.8859 0.3814 -0.2640
vn -0.0905 0.0390 -0.9951
vn 0.7392 -0.5773 -0.3469
vn 0.4688 -0.3662 0.8038
vn -0.4571 0.3570 0.8146
vn -0.7582 0.5921 -0.2732
vn -0.0448 0.0350 -0.9984
vn 0.7176 -0.6108 -0.3346
vn 0.4712 -0.4010 0.7856
vn -0.4229 0.3600 0.8316
vn -0.7305 0.6217 -0.2828
vn -0.0151 0.0129 -0.9998
vn 0.7719 -0.5430 -0.3308
vn 0.5124 -0.3604 0.7795
vn -0.4465 0.3141 0.8379
vn -0.7836 0.5512 -0.2866
vn -0.0055 0.0039 -1.0000
vn 0.8429 -0.4258 -0.3289
vn 0.5626 -0.2841 0.7764
vn -0.4827 0.2438 0.8411
vn -0.8546 0.4317 -0.2887
vn -0.0000 0.0000 -1.0000
vn -0.5689 -0.7881 0.2352
vn 0.5920 -0.2013 0.7804
vn -0.5182 0.1762 0.8369
vn -0.9072 0.3084 -0.2860
vn -0.0083 0.0028 -1.0000
vn -0.3956 0.4002 0.8266
vn -0.0018 0.9811 0.1936
vn -0.4688 -0.3661 0.8038
vn -0.8571 0.3611 -0.3674
vn 0.0397 -0.0964 -0.9945
vn 0.8571 0.3611 -0.3674
vn -0.9072 0.3085 -0.2860
# 117 vertex normals

o CLEM_2__Prop_Neon015
g CLEM_2__Prop_Neon015
s 3
f 1//1 2//2 3//3 4//4 
f 4//4 3//3 5//5 6//6 
f 6//6 5//5 7//7 8//8 
f 8//8 7//7 9//9 10//10 
f 10//10 9//9 2//2 1//1 
s 6
f 2//2 11//11 12//12 3//3 
f 3//3 12//12 13//13 5//5 
f 5//5 13//13 14//14 7//7 
f 7//7 14//14 15//15 9//9 
f 9//9 15//15 11//11 2//2 
s 12
f 11//11 16//16 17//17 12//12 
f 12//12 17//17 18//18 13//13 
f 13//13 18//18 19//19 14//14 
f 14//14 19//19 20//20 15//15 
f 15//15 20//20 16//16 11//11 
s 8
f 16//16 21//21 22//22 17//17 
f 17//17 22//22 23//23 18//18 
f 18//18 23//23 24//24 19//19 
f 19//19 24//24 25//25 20//20 
f 20//20 25//25 21//21 16//16 
s 2
f 21//21 26//26 27//27 22//22 
f 22//22 27//27 28//28 23//23 
f 23//23 28//28 29//29 24//24 
f 24//24 29//29 30//30 25//25 
f 25//25 30//30 26//26 21//21 
s 12
f 26//26 31//31 32//32 27//27 
f 27//27 32//32 33//33 28//28 
f 28//28 33//33 34//34 29//29 
f 29//29 34//34 35//35 30//30 
f 30//30 35//35 31//31 26//26 
s 10
f 31//31 36//36 37//37 32//32 
f 32//32 37//37 38//38 33//33 
f 33//33 38//38 39//39 34//34 
f 34//34 39//39 40//40 35//35 
f 35//35 40//40 36//36 31//31 
s 6
f 36//36 41//41 42//42 37//37 
f 37//37 42//42 43//43 38//38 
f 38//38 43//43 44//44 39//39 
f 39//39 44//44 45//45 40//40 
f 40//40 45//45 41//41 36//36 
s 12
f 41//41 46//46 47//47 42//42 
f 42//42 47//47 48//48 43//43 
f 43//43 48//48 49//49 44//44 
f 44//44 49//49 50//50 45//45 
f 45//45 50//50 46//46 41//41 
s 10
f 46//46 51//51 52//52 47//47 
f 47//47 52//52 53//53 48//48 
f 48//48 53//53 54//54 49//49 
f 49//49 54//54 55//55 50//50 
f 50//50 55//55 51//51 46//46 
s 6
f 51//51 56//56 57//57 52//52 
f 52//52 57//57 58//58 53//53 
f 53//53 58//58 59//59 54//54 
f 54//54 59//59 60//60 55//55 
f 55//55 60//60 56//56 51//51 
s 12
f 56//56 61//61 62//62 57//57 
f 57//57 62//62 63//63 58//58 
f 58//58 63//63 64//64 59//59 
f 59//59 64//64 65//65 60//60 
f 60//60 65//65 61//61 56//56 
s 10
f 61//61 66//66 67//67 62//62 
f 62//62 67//67 68//68 63//63 
f 63//63 68//68 69//69 64//64 
f 64//64 69//69 70//70 65//65 
f 65//65 70//70 66//66 61//61 
s 6
f 66//66 71//71 72//72 67//67 
f 67//67 72//72 73//73 68//68 
f 68//68 73//73 74//74 69//69 
f 69//69 74//74 75//75 70//70 
f 70//70 75//75 71//71 66//66 
s 12
f 71//71 76//76 77//77 72//72 
f 72//72 77//77 78//78 73//73 
f 73//73 78//78 79//79 74//74 
f 74//74 79//79 80//80 75//75 
f 75//75 80//80 76//76 71//71 
s 10
f 76//76 81//81 82//82 77//77 
f 77//77 82//82 83//83 78//78 
f 78//78 83//83 84//84 79//79 
f 79//79 84//84 85//85 80//80 
f 80//80 85//85 81//81 76//76 
s 2
f 81//81 86//86 87//87 82//82 
f 82//82 87//87 88//88 83//83 
f 83//83 88//88 89//89 84//84 
f 84//84 89//89 90//90 85//85 
f 85//85 90//90 86//86 81//81 
s 4
f 86//86 91//91 92//92 87//87 
f 87//87 92//92 93//93 88//88 
f 88//88 93//93 94//94 89//89 
f 89//89 94//94 95//95 90//90 
f 90//90 95//95 91//91 86//86 
s 10
f 91//91 96//96 97//97 92//92 
f 92//92 97//97 98//98 93//93 
f 93//93 98//98 99//99 94//94 
f 94//94 99//99 100//100 95//95 
f 95//95 100//100 96//96 91//91 
s 6
f 96//96 101//101 102//102 97//97 
f 97//97 102//102 103//103 98//98 
f 98//98 103//103 104//104 99//99 
f 99//99 104//104 105//105 100//100 
f 100//100 105//105 101//101 96//96 
s 20
f 101//101 106//106 107//107 102//102 
f 102//102 107//107 108//108 103//103 
f 103//103 108//108 109//109 104//104 
f 104//104 109//109 110//110 105//105 
f 105//105 110//110 106//106 101//101 
s 16
f 106//106 1//1 4//4 107//107 
f 107//107 4//4 6//6 108//108 
f 108//108 6//6 8//8 109//109 
f 109//109 8//8 10//10 110//110 
f 110//110 10//10 1//1 106//106 
s 3
f 111//1 112//2 113//3 114//4 
f 114//4 113//3 115//5 116//6 
f 116//6 115//5 117//7 118//8 
f 118//8 117//7 119//9 120//10 
f 120//10 119//9 112//2 111//1 
s 6
f 112//2 121//11 122//12 113//3 
f 113//3 122//12 123//13 115//5 
f 115//5 123//13 124//14 117//7 
f 117//7 124//14 125//15 119//9 
f 119//9 125//15 121//11 112//2 
s 12
f 121//11 126//16 127//17 122//12 
f 122//12 127//17 128//18 123//13 
f 123//13 128//18 129//19 124//14 
f 124//14 129//19 130//20 125//15 
f 125//15 130//20 126//16 121//11 
s 8
f 126//16 131//21 132//22 127//17 
f 127//17 132//22 133//23 128//18 
f 128//18 133//23 134//24 129//19 
f 129//19 134//24 135//25 130//20 
f 130//20 135//25 131//21 126//16 
s 2
f 131//21 136//26 137//27 132//22 
f 132//22 137//27 138//28 133//23 
f 133//23 138//28 139//29 134//24 
f 134//24 139//29 140//30 135//25 
f 135//25 140//30 136//26 131//21 
s 12
f 136//26 141//31 142//32 137//27 
f 137//27 142//32 143//33 138//28 
f 138//28 143//33 144//34 139//29 
f 139//29 144//34 145//35 140//30 
f 140//30 145//35 141//31 136//26 
s 10
f 141//31 146//36 147//37 142//32 
f 142//32 147//37 148//38 143//33 
f 143//33 148//38 149//39 144//34 
f 144//34 149//39 150//40 145//35 
f 145//35 150//40 146//36 141//31 
s 6
f 146//36 151//41 152//42 147//37 
f 147//37 152//42 153//43 148//38 
f 148//38 153//43 154//44 149//39 
f 149//39 154//44 155//45 150//40 
f 150//40 155//45 151//41 146//36 
s 12
f 151//41 156//46 157//111 152//42 
f 152//42 157//111 158//48 153//43 
f 153//43 158//48 159//49 154//44 
f 154//44 159//49 160//50 155//45 
f 155//45 160//50 156//46 151//41 
s 10
f 156//46 161//51 162//52 157//111 
f 157//111 162//52 163//53 158//48 
f 158//48 163//53 164//54 159//49 
f 159//49 164//54 165//55 160//50 
f 160//50 165//55 161//51 156//46 
s 6
f 161//51 166//56 167//57 162//52 
f 162//52 167//57 168//58 163//53 
f 163//53 168//58 169//59 164//54 
f 164//54 169//59 170//60 165//55 
f 165//55 170//60 166//56 161//51 
s 12
f 166//56 171//61 172//62 167//57 
f 167//57 172//62 173//63 168//58 
f 168//58 173//63 174//64 169//59 
f 169//59 174//64 175//65 170//60 
f 170//60 175//65 171//61 166//56 
s 10
f 171//61 176//66 177//67 172//62 
f 172//62 177//67 178//68 173//63 
f 173//63 178//68 179//69 174//64 
f 174//64 179//69 180//70 175//65 
f 175//65 180//70 176//66 171//61 
s 6
f 176//66 181//71 182//72 177//67 
f 177//67 182//72 183//73 178//68 
f 178//68 183//73 184//74 179//69 
f 179//69 184//74 185//75 180//70 
f 180//70 185//75 181//71 176//66 
s 12
f 181//71 186//76 187//77 182//72 
f 182//72 187//77 188//78 183//73 
f 183//73 188//78 189//79 184//74 
f 184//74 189//79 190//80 185//75 
f 185//75 190//80 186//76 181//71 
s 10
f 186//76 191//81 192//82 187//77 
f 187//77 192//82 193//83 188//78 
f 188//78 193//83 194//84 189//79 
f 189//79 194//84 195//85 190//80 
f 190//80 195//85 191//81 186//76 
s 2
f 191//81 196//86 197//87 192//82 
f 192//82 197//87 198//88 193//83 
f 193//83 198//88 199//89 194//84 
f 194//84 199//89 200//90 195//85 
f 195//85 200//90 196//86 191//81 
s 4
f 196//86 201//91 202//92 197//87 
f 197//87 202//92 203//93 198//88 
f 198//88 203//93 204//94 199//89 
f 199//89 204//94 205//95 200//90 
f 200//90 205//95 201//91 196//86 
s 10
f 201//91 206//96 207//97 202//92 
f 202//92 207//97 208//98 203//93 
f 203//93 208//98 209//99 204//94 
f 204//94 209//99 210//100 205//95 
f 205//95 210//100 206//96 201//91 
s 6
f 206//96 211//101 212//102 207//97 
f 207//97 212//102 213//103 208//98 
f 208//98 213//103 214//104 209//99 
f 209//99 214//104 215//105 210//100 
f 210//100 215//105 211//101 206//96 
s 20
f 211//101 216//106 217//107 212//102 
f 212//102 217//107 218//108 213//103 
f 213//103 218//108 219//109 214//104 
f 214//104 219//109 220//110 215//105 
f 215//105 220//110 216//106 211//101 
s 16
f 216//106 111//1 114//4 217//107 
f 217//107 114//4 116//6 218//108 
f 218//108 116//6 118//8 219//109 
f 219//109 118//8 120//10 220//110 
f 220//110 120//10 111//1 216//106 
s 3
f 221//112 222//2 223//3 224//4 
f 224//4 223//3 225//5 226//6 
f 226//6 225//5 227//7 228//8 
f 228//8 227//7 229//9 230//10 
f 230//10 229//9 222//2 221//112 
s 6
f 222//2 231//11 232//12 223//3 
f 223//3 232//12 233//13 225//5 
f 225//5 233//13 234//14 227//7 
f 227//7 234//14 235//15 229//9 
f 229//9 235//15 231//11 222//2 
s 12
f 231//11 236//16 237//17 232//12 
f 232//12 237//17 238//18 233//13 
f 233//13 238//18 239//19 234//14 
f 234//14 239//19 240//20 235//15 
f 235//15 240//20 236//16 231//11 
s 8
f 236//16 241//21 242//22 237//17 
f 237//17 242//22 243//23 238//18 
f 238//18 243//23 244//24 239//19 
f 239//19 244//24 245//25 240//20 
f 240//20 245//25 241//21 236//16 
s 2
f 241//21 246//26 247//113 242//22 
f 242//22 247//113 248//28 243//23 
f 243//23 248//28 249//29 244//24 
f 244//24 249//29 250//30 245//25 
f 245//25 250//30 246//26 241//21 
s 12
f 246//26 251//31 252//32 247//113 
f 247//113 252//32 253//33 248//28 
f 248//28 253//33 254//34 249//29 
f 249//29 254//34 255//35 250//30 
f 250//30 255//35 251//31 246//26 
s 10
f 251//31 256//36 257//37 252//32 
f 252//32 257//37 258//38 253//33 
f 253//33 258//38 259//39 254//34 
f 254//34 259//39 260//40 255//35 
f 255//35 260//40 256//36 251//31 
s 6
f 256//36 261//114 262//42 257//37 
f 257//37 262//42 263//43 258//38 
f 258//38 263//43 264//44 259//39 
f 259//39 264//44 265//45 260//40 
f 260//40 265//45 261//114 256//36 
s 12
f 261//114 266//46 267//111 262//42 
f 262//42 267//111 268//48 263//43 
f 263//43 268//48 269//49 264//44 
f 264//44 269//49 270//50 265//45 
f 265//45 270//50 266//46 261//114 
s 10
f 266//46 271//51 272//52 267//111 
f 267//111 272//52 273//53 268//48 
f 268//48 273//53 274//54 269//49 
f 269//49 274//54 275//115 270//50 
f 270//50 275//115 271//51 266//46 
s 6
f 271//51 276//56 277//57 272//52 
f 272//52 277//57 278//58 273//53 
f 273//53 278//58 279//59 274//54 
f 274//54 279//59 280//60 275//115 
f 275//115 280//60 276//56 271//51 
s 12
f 276//56 281//61 282//62 277//57 
f 277//57 282//62 283//63 278//58 
f 278//58 283//63 284//64 279//59 
f 279//59 284//64 285//65 280//60 
f 280//60 285//65 281//61 276//56 
s 10
f 281//61 286//66 287//67 282//62 
f 282//62 287//67 288//68 283//63 
f 283//63 288//68 289//69 284//64 
f 284//64 289//69 290//70 285//65 
f 285//65 290//70 286//66 281//61 
s 6
f 286//66 291//116 292//72 287//67 
f 287//67 292//72 293//73 288//68 
f 288//68 293//73 294//74 289//69 
f 289//69 294//74 295//75 290//70 
f 290//70 295//75 291//116 286//66 
s 12
f 291//116 296//76 297//77 292//72 
f 292//72 297//77 298//78 293//73 
f 293//73 298//78 299//79 294//74 
f 294//74 299//79 300//80 295//75 
f 295//75 300//80 296//76 291//116 
s 10
f 296//76 301//81 302//82 297//77 
f 297//77 302//82 303//83 298//78 
f 298//78 303//83 304//84 299//79 
f 299//79 304//84 305//85 300//80 
f 300//80 305//85 301//81 296//76 
s 2
f 301//81 306//86 307//87 302//82 
f 302//82 307//87 308//88 303//83 
f 303//83 308//88 309//89 304//84 
f 304//84 309//89 310//90 305//85 
f 305//85 310//90 306//86 301//81 
s 4
f 306//86 311//91 312//92 307//87 
f 307//87 312//92 313//93 308//88 
f 308//88 313//93 314//94 309//89 
f 309//89 314//94 315//95 310//90 
f 310//90 315//95 311//91 306//86 
s 10
f 311//91 316//96 317//97 312//92 
f 312//92 317//97 318//98 313//93 
f 313//93 318//98 319//99 314//94 
f 314//94 319//99 320//100 315//95 
f 315//95 320//100 316//96 311//91 
s 6
f 316//96 321//101 322//102 317//97 
f 317//97 322//102 323//103 318//98 
f 318//98 323//103 324//104 319//99 
f 319//99 324//104 325//105 320//100 
f 320//100 325//105 321//101 316//96 
s 20
f 321//101 326//106 327//107 322//102 
f 322//102 327//107 328//108 323//103 
f 323//103 328//108 329//117 324//104 
f 324//104 329//117 330//110 325//105 
f 325//105 330//110 326//106 321//101 
s 16
f 326//106 221//112 224//4 327//107 
f 327//107 224//4 226//6 328//108 
f 328//108 226//6 228//8 329//117 
f 329//117 228//8 230//10 330//110 
f 330//110 230//10 221//112 326//106 
# 330 polygons

