# 3ds Max Wavefront OBJ Exporter v0.97b - (c)2007 guruware
# File Created: 22.04.2018 16:11:25

#
# object CLEM_2__Prop_Neon019
#

v  1.7404 -0.0012 -0.0000
v  1.6129 -0.6680 -0.0000
v  1.7791 -0.7370 0.2425
v  1.9198 -0.0013 0.2425
v  2.0481 -0.8486 0.1499
v  2.2100 -0.0013 0.1499
v  2.0481 -0.8486 -0.1499
v  2.2100 -0.0013 -0.1499
v  1.7791 -0.7370 -0.2425
v  1.9198 -0.0013 -0.2425
v  1.2305 -1.2292 -0.0000
v  1.3572 -1.3562 0.2425
v  1.5622 -1.5617 0.1499
v  1.5622 -1.5617 -0.1499
v  1.3572 -1.3562 -0.2425
v  0.6679 -1.6107 -0.0000
v  0.7366 -1.7770 0.2425
v  0.8479 -2.0461 0.1499
v  0.8479 -2.0461 -0.1499
v  0.7366 -1.7770 -0.2425
v  -0.0000 -1.7379 -0.0000
v  -0.0000 -1.9173 0.2425
v  0.0000 -2.2075 0.1499
v  0.0000 -2.2075 -0.1499
v  -0.0000 -1.9173 -0.2425
v  -0.6679 -1.6107 -0.0000
v  -0.7366 -1.7770 0.2425
v  -0.8479 -2.0461 0.1499
v  -0.8479 -2.0461 -0.1499
v  -0.7366 -1.7770 -0.2425
v  -1.2306 -1.2292 -0.0000
v  -1.3572 -1.3562 0.2425
v  -1.5622 -1.5617 0.1499
v  -1.5622 -1.5617 -0.1499
v  -1.3572 -1.3562 -0.2425
v  -1.6129 -0.6680 -0.0000
v  -1.7791 -0.7370 0.2425
v  -2.0481 -0.8486 0.1499
v  -2.0481 -0.8486 -0.1499
v  -1.7791 -0.7370 -0.2425
v  -1.7404 -0.0012 -0.0000
v  -1.9198 -0.0013 0.2425
v  -2.2100 -0.0013 0.1499
v  -2.2100 -0.0013 -0.1499
v  -1.9198 -0.0013 -0.2425
v  -1.6129 0.6659 0.0000
v  -1.7791 0.7349 0.2425
v  -2.0481 0.8464 0.1499
v  -2.0481 0.8464 -0.1499
v  -1.7791 0.7349 -0.2425
v  -1.2304 1.2282 0.0000
v  -1.3572 1.3551 0.2425
v  -1.5624 1.5603 0.1499
v  -1.5624 1.5603 -0.1499
v  -1.3572 1.3551 -0.2425
v  -0.6677 1.6105 0.0000
v  -0.7366 1.7767 0.2425
v  -0.8480 2.0457 0.1499
v  -0.8480 2.0457 -0.1499
v  -0.7366 1.7767 -0.2425
v  0.0000 1.7379 0.0000
v  0.0000 1.9173 0.2425
v  -0.0000 2.2075 0.1499
v  -0.0000 2.2075 -0.1499
v  0.0000 1.9173 -0.2425
v  0.6677 1.6105 0.0000
v  0.7366 1.7767 0.2425
v  0.8480 2.0457 0.1499
v  0.8480 2.0457 -0.1499
v  0.7366 1.7767 -0.2425
v  1.2304 1.2282 0.0000
v  1.3572 1.3551 0.2425
v  1.5624 1.5603 0.1499
v  1.5624 1.5603 -0.1499
v  1.3572 1.3551 -0.2425
v  1.6129 0.6659 0.0000
v  1.7791 0.7349 0.2425
v  2.0481 0.8464 0.1499
v  2.0481 0.8464 -0.1499
v  1.7791 0.7349 -0.2425
v  1.9346 -0.0013 -0.0000
v  1.7931 0.7407 0.0000
v  1.6269 0.6718 0.2425
v  1.7552 -0.0013 0.2425
v  1.3579 0.5605 0.1499
v  1.4650 -0.0012 0.1499
v  1.3579 0.5605 -0.1499
v  1.4650 -0.0012 -0.1499
v  1.6269 0.6718 -0.2425
v  1.7552 -0.0013 -0.2425
v  1.3687 1.3656 0.0000
v  1.2418 1.2388 0.2425
v  1.0365 1.0336 0.1499
v  1.0365 1.0336 -0.1499
v  1.2418 1.2388 -0.2425
v  0.7438 1.7905 0.0000
v  0.6750 1.6242 0.2425
v  0.5635 1.3553 0.1499
v  0.5635 1.3553 -0.1499
v  0.6750 1.6242 -0.2425
v  0.0013 1.9321 0.0000
v  0.0013 1.7527 0.2425
v  0.0012 1.4625 0.1499
v  0.0012 1.4625 -0.1499
v  0.0013 1.7527 -0.2425
v  -0.7416 1.7905 0.0000
v  -0.6728 1.6242 0.2425
v  -0.5615 1.3552 0.1499
v  -0.5615 1.3552 -0.1499
v  -0.6728 1.6242 -0.2425
v  -1.3673 1.3658 0.0000
v  -1.2406 1.2389 0.2425
v  -1.0355 1.0335 0.1499
v  -1.0355 1.0335 -0.1499
v  -1.2406 1.2389 -0.2425
v  -1.7928 0.7409 0.0000
v  -1.6265 0.6719 0.2425
v  -1.3576 0.5603 0.1499
v  -1.3576 0.5603 -0.1499
v  -1.6265 0.6719 -0.2425
v  -1.9346 -0.0013 -0.0000
v  -1.7552 -0.0013 0.2425
v  -1.4650 -0.0012 0.1499
v  -1.4650 -0.0012 -0.1499
v  -1.7552 -0.0013 -0.2425
v  -1.7927 -0.7431 -0.0000
v  -1.6265 -0.6741 0.2425
v  -1.3576 -0.5624 0.1499
v  -1.3576 -0.5624 -0.1499
v  -1.6265 -0.6741 -0.2425
v  -1.3671 -1.3672 -0.0000
v  -1.2405 -1.2401 0.2425
v  -1.0356 -1.0346 0.1499
v  -1.0356 -1.0346 -0.1499
v  -1.2405 -1.2401 -0.2425
v  -0.7414 -1.7909 -0.0000
v  -0.6727 -1.6246 0.2425
v  -0.5616 -1.3555 0.1499
v  -0.5616 -1.3555 -0.1499
v  -0.6727 -1.6246 -0.2425
v  0.0013 -1.9321 -0.0000
v  0.0013 -1.7527 0.2425
v  0.0012 -1.4625 0.1499
v  0.0012 -1.4625 -0.1499
v  0.0013 -1.7527 -0.2425
v  0.7436 -1.7909 -0.0000
v  0.6749 -1.6246 0.2425
v  0.5637 -1.3555 0.1499
v  0.5637 -1.3555 -0.1499
v  0.6749 -1.6246 -0.2425
v  1.3685 -1.3670 -0.0000
v  1.2418 -1.2401 0.2425
v  1.0367 -1.0347 0.1499
v  1.0367 -1.0347 -0.1499
v  1.2418 -1.2401 -0.2425
v  1.7931 -0.7429 -0.0000
v  1.6269 -0.6740 0.2425
v  1.3579 -0.5625 0.1499
v  1.3579 -0.5625 -0.1499
v  1.6269 -0.6740 -0.2425
v  0.1497 1.0300 0.0000
v  0.1412 0.9891 0.0000
v  0.3061 0.9159 0.2425
v  0.3295 1.0300 0.2425
v  0.5728 0.7976 0.1499
v  0.6206 1.0300 0.1499
v  0.5728 0.7976 -0.1499
v  0.6206 1.0300 -0.1499
v  0.3061 0.9159 -0.2425
v  0.3295 1.0300 -0.2425
v  0.1120 0.9492 0.0000
v  0.2344 0.8182 0.2425
v  0.4325 0.6061 0.1499
v  0.4325 0.6061 -0.1499
v  0.2344 0.8182 -0.2425
v  0.0623 0.9177 0.0000
v  0.1274 0.7504 0.2425
v  0.2327 0.4796 0.1499
v  0.2327 0.4796 -0.1499
v  0.1274 0.7504 -0.2425
v  -0.0002 0.9065 0.0000
v  -0.0001 0.7275 0.2425
v  0.0002 0.4379 0.1499
v  0.0002 0.4379 -0.1499
v  -0.0001 0.7275 -0.2425
v  -0.0639 0.9178 0.0000
v  -0.1290 0.7504 0.2425
v  -0.2342 0.4795 0.1499
v  -0.2342 0.4795 -0.1499
v  -0.1290 0.7504 -0.2425
v  -0.1126 0.9487 0.0000
v  -0.2355 0.8180 0.2425
v  -0.4343 0.6065 0.1499
v  -0.4343 0.6065 -0.1499
v  -0.2355 0.8180 -0.2425
v  -0.1413 0.9882 0.0000
v  -0.3063 0.9157 0.2425
v  -0.5733 0.7983 0.1499
v  -0.5733 0.7983 -0.1499
v  -0.3063 0.9157 -0.2425
v  -0.1498 1.0300 0.0000
v  -0.3296 1.0300 0.2425
v  -0.6205 1.0300 0.1499
v  -0.6205 1.0300 -0.1499
v  -0.3296 1.0300 -0.2425
v  -0.1413 1.0718 0.0000
v  -0.3063 1.1443 0.2425
v  -0.5733 1.2617 0.1499
v  -0.5733 1.2617 -0.1499
v  -0.3063 1.1443 -0.2425
v  -0.1126 1.1113 0.0000
v  -0.2355 1.2420 0.2425
v  -0.4343 1.4535 0.1499
v  -0.4343 1.4535 -0.1499
v  -0.2355 1.2420 -0.2425
v  -0.0639 1.1422 0.0000
v  -0.1290 1.3096 0.2425
v  -0.2342 1.5805 0.1499
v  -0.2342 1.5805 -0.1499
v  -0.1290 1.3096 -0.2425
v  -0.0002 1.1535 0.0000
v  -0.0001 1.3325 0.2425
v  0.0002 1.6220 0.1499
v  0.0002 1.6220 -0.1499
v  -0.0001 1.3325 -0.2425
v  0.0623 1.1423 0.0000
v  0.1274 1.3096 0.2425
v  0.2327 1.5804 0.1499
v  0.2327 1.5804 -0.1499
v  0.1274 1.3096 -0.2425
v  0.1120 1.1108 0.0000
v  0.2344 1.2418 0.2425
v  0.4325 1.4538 0.1499
v  0.4325 1.4538 -0.1499
v  0.2344 1.2418 -0.2425
v  0.1412 1.0709 0.0000
v  0.3061 1.1441 0.2425
v  0.5728 1.2624 0.1499
v  0.5728 1.2624 -0.1499
v  0.3061 1.1441 -0.2425
v  0.0800 -1.2375 -0.0000
v  -0.0800 -1.2375 -0.0000
v  -0.2562 -1.4137 0.2425
v  0.2562 -1.4137 0.2425
v  -0.5413 -1.6988 0.1499
v  0.5413 -1.6988 0.1499
v  -0.5413 -1.6988 -0.1499
v  0.5413 -1.6988 -0.1499
v  -0.2562 -1.4137 -0.2425
v  0.2562 -1.4137 -0.2425
v  -0.0800 0.1575 0.0000
v  -0.2562 0.3337 0.2425
v  -0.5413 0.6188 0.1499
v  -0.5413 0.6188 -0.1499
v  -0.2562 0.3337 -0.2425
v  0.0800 0.1575 0.0000
v  0.2562 0.3337 0.2425
v  0.5413 0.6188 0.1499
v  0.5413 0.6188 -0.1499
v  0.2562 0.3337 -0.2425
# 260 vertices

vn -1.0000 0.0000 -0.0000
vn -0.9236 0.3834 0.0000
vn -0.2177 0.0904 0.9718
vn -0.2416 0.0000 0.9704
vn 0.7674 -0.3186 0.5564
vn 0.8295 -0.0000 0.5585
vn 0.7674 -0.3186 -0.5564
vn 0.8296 -0.0000 -0.5584
vn -0.2177 0.0904 -0.9718
vn -0.2416 0.0000 -0.9704
vn -0.7063 0.7079 0.0000
vn -0.1707 0.1711 0.9703
vn 0.5859 -0.5872 0.5585
vn 0.5859 -0.5872 -0.5585
vn -0.1707 0.1711 -0.9703
vn -0.3820 0.9241 -0.0000
vn -0.0902 0.2181 0.9718
vn 0.3174 -0.7678 0.5565
vn 0.3174 -0.7678 -0.5565
vn -0.0902 0.2181 -0.9718
vn 0.0000 1.0000 0.0000
vn -0.0000 0.2418 0.9703
vn 0.0000 -0.8295 0.5585
vn -0.0000 -0.8295 -0.5586
vn -0.0000 0.2418 -0.9703
vn 0.3820 0.9241 -0.0000
vn 0.0902 0.2181 0.9718
vn -0.3174 -0.7678 0.5565
vn -0.3174 -0.7679 -0.5564
vn 0.0902 0.2181 -0.9718
vn 0.7063 0.7079 0.0000
vn 0.1707 0.1711 0.9703
vn -0.5859 -0.5872 0.5585
vn -0.5859 -0.5872 -0.5585
vn 0.1707 0.1711 -0.9703
vn 0.9236 0.3834 0.0000
vn 0.2177 0.0904 0.9718
vn -0.7674 -0.3186 0.5564
vn -0.7674 -0.3186 -0.5564
vn 0.2177 0.0904 -0.9718
vn 1.0000 0.0000 -0.0000
vn 0.2416 0.0000 0.9704
vn -0.8295 -0.0000 0.5585
vn -0.8295 -0.0000 -0.5585
vn 0.2416 0.0000 -0.9704
vn 0.9237 -0.3830 -0.0000
vn 0.2178 -0.0903 0.9718
vn -0.7675 0.3183 0.5564
vn -0.7675 0.3183 -0.5564
vn 0.2178 -0.0903 -0.9718
vn 0.7069 -0.7073 -0.0000
vn 0.1709 -0.1710 0.9703
vn -0.5864 0.5867 0.5585
vn -0.5864 0.5867 -0.5585
vn 0.1709 -0.1710 -0.9703
vn 0.3827 -0.9239 -0.0000
vn 0.0903 -0.2179 0.9718
vn -0.3179 0.7676 0.5564
vn -0.3179 0.7677 -0.5564
vn 0.0903 -0.2179 -0.9718
vn -0.0000 -1.0000 0.0000
vn 0.0000 -0.2417 0.9704
vn 0.0000 0.8295 0.5585
vn 0.0000 0.8296 -0.5584
vn 0.0000 -0.2417 -0.9704
vn -0.3827 -0.9239 -0.0000
vn -0.0903 -0.2179 0.9718
vn 0.3179 0.7676 0.5564
vn 0.3180 0.7676 -0.5565
vn -0.0903 -0.2179 -0.9718
vn -0.7069 -0.7073 -0.0000
vn -0.1709 -0.1710 0.9703
vn 0.5864 0.5867 0.5585
vn 0.5864 0.5867 -0.5585
vn -0.1709 -0.1710 -0.9703
vn -0.9237 -0.3830 0.0000
vn -0.2178 -0.0903 0.9718
vn 0.7675 0.3183 0.5564
vn 0.7675 0.3183 -0.5564
vn -0.2178 -0.0903 -0.9718
vn 1.0000 -0.0001 0.0000
vn 0.9240 0.3825 0.0000
vn 0.3439 0.1424 0.9281
vn 0.3679 -0.0000 0.9299
vn -0.7180 -0.2972 0.6294
vn -0.7799 0.0000 0.6259
vn -0.7179 -0.2972 -0.6295
vn -0.7799 0.0000 -0.6259
vn 0.3439 0.1424 -0.9281
vn 0.3679 -0.0000 -0.9299
vn 0.7073 0.7069 0.0000
vn 0.2602 0.2601 0.9299
vn -0.5516 -0.5513 0.6260
vn -0.5516 -0.5513 -0.6259
vn 0.2602 0.2601 -0.9299
vn 0.3828 0.9238 0.0000
vn 0.1425 0.3439 0.9281
vn -0.2974 -0.7178 0.6296
vn -0.2974 -0.7178 -0.6296
vn 0.1425 0.3439 -0.9281
vn 0.0001 1.0000 0.0000
vn 0.0000 0.3678 0.9299
vn -0.0001 -0.7799 0.6259
vn -0.0000 -0.7799 -0.6259
vn 0.0000 0.3678 -0.9299
vn -0.3823 0.9240 0.0000
vn -0.1423 0.3439 0.9282
vn 0.2971 -0.7180 0.6295
vn 0.2971 -0.7180 -0.6295
vn -0.1423 0.3439 -0.9282
vn -0.7066 0.7076 0.0000
vn -0.2599 0.2603 0.9299
vn 0.5511 -0.5519 0.6259
vn 0.5511 -0.5519 -0.6259
vn -0.2599 0.2603 -0.9299
vn -0.9236 0.3832 0.0000
vn -0.3439 0.1427 0.9281
vn 0.7176 -0.2978 0.6296
vn 0.7176 -0.2978 -0.6296
vn -0.3439 0.1427 -0.9281
vn -1.0000 -0.0001 -0.0000
vn -0.3680 -0.0000 0.9298
vn 0.7799 0.0000 0.6260
vn 0.7798 0.0001 -0.6260
vn -0.3680 -0.0000 -0.9298
vn -0.9235 -0.3837 -0.0000
vn -0.3439 -0.1429 0.9281
vn 0.7175 0.2981 0.6296
vn 0.7175 0.2981 -0.6296
vn -0.3439 -0.1429 -0.9281
vn -0.7059 -0.7083 0.0000
vn -0.2597 -0.2606 0.9299
vn 0.5506 0.5524 0.6259
vn 0.5506 0.5524 -0.6259
vn -0.2597 -0.2606 -0.9299
vn -0.3816 -0.9243 0.0000
vn -0.1420 -0.3439 0.9282
vn 0.2966 0.7183 0.6294
vn 0.2966 0.7183 -0.6294
vn -0.1420 -0.3439 -0.9282
vn 0.0001 -1.0000 0.0000
vn 0.0000 -0.3677 0.9299
vn -0.0000 0.7800 0.6258
vn -0.0001 0.7800 -0.6257
vn 0.0000 -0.3677 -0.9299
vn 0.3820 -0.9242 0.0000
vn 0.1422 -0.3440 0.9282
vn -0.2969 0.7181 0.6294
vn -0.2968 0.7181 -0.6294
vn 0.1422 -0.3440 -0.9282
vn 0.7066 -0.7076 -0.0000
vn 0.2600 -0.2603 0.9299
vn -0.5511 0.5518 0.6260
vn -0.5511 0.5518 -0.6259
vn 0.2600 -0.2603 -0.9299
vn 0.9238 -0.3829 -0.0000
vn 0.3439 -0.1426 0.9281
vn -0.7177 0.2975 0.6295
vn -0.7177 0.2975 -0.6296
vn 0.3439 -0.1426 -0.9281
vn -1.0000 0.0000 0.0000
vn -0.9140 0.4057 0.0000
vn -0.2120 0.0941 0.9727
vn -0.2363 0.0000 0.9717
vn 0.7603 -0.3374 0.5551
vn 0.8308 0.0000 0.5566
vn 0.7603 -0.3375 -0.5550
vn 0.8308 0.0000 -0.5566
vn -0.2120 0.0941 -0.9727
vn -0.2363 0.0000 -0.9717
vn -0.6827 0.7307 -0.0000
vn -0.1654 0.1771 0.9702
vn 0.5662 -0.6060 0.5587
vn 0.5662 -0.6060 -0.5587
vn -0.1654 0.1771 -0.9702
vn -0.3625 0.9320 0.0000
vn -0.0869 0.2235 0.9708
vn 0.3008 -0.7736 0.5578
vn 0.3008 -0.7735 -0.5578
vn -0.0869 0.2235 -0.9708
vn -0.0009 1.0000 -0.0000
vn -0.0002 0.2462 0.9692
vn 0.0007 -0.8284 0.5601
vn 0.0007 -0.8284 -0.5601
vn -0.0002 0.2462 -0.9692
vn 0.3622 0.9321 0.0000
vn 0.0866 0.2230 0.9710
vn -0.3006 -0.7738 0.5576
vn -0.3006 -0.7738 -0.5576
vn 0.0866 0.2230 -0.9710
vn 0.6849 0.7286 0.0000
vn 0.1655 0.1760 0.9704
vn -0.5682 -0.6044 0.5585
vn -0.5682 -0.6044 -0.5585
vn 0.1655 0.1760 -0.9704
vn 0.9154 0.4025 0.0000
vn 0.2128 0.0936 0.9726
vn -0.7614 -0.3347 0.5553
vn -0.7613 -0.3347 -0.5553
vn 0.2128 0.0936 -0.9726
vn 0.2371 -0.0000 0.9715
vn -0.8306 -0.0000 0.5569
vn -0.8306 -0.0000 -0.5568
vn 0.2371 0.0000 -0.9715
vn 0.9154 -0.4025 -0.0000
vn 0.2128 -0.0936 0.9726
vn -0.7614 0.3347 0.5553
vn -0.7614 0.3347 -0.5553
vn 0.2128 -0.0936 -0.9726
vn 0.6849 -0.7286 0.0000
vn 0.1655 -0.1760 0.9704
vn -0.5682 0.6044 0.5585
vn -0.5682 0.6044 -0.5585
vn 0.1655 -0.1760 -0.9704
vn 0.3622 -0.9321 -0.0000
vn 0.0866 -0.2230 0.9710
vn -0.3006 0.7737 0.5577
vn -0.3006 0.7738 -0.5576
vn 0.0866 -0.2230 -0.9710
vn -0.0009 -1.0000 -0.0000
vn -0.0002 -0.2462 0.9692
vn 0.0007 0.8284 0.5601
vn 0.0007 0.8284 -0.5601
vn -0.0002 -0.2462 -0.9692
vn -0.3625 -0.9320 0.0000
vn -0.0869 -0.2235 0.9708
vn 0.3008 0.7736 0.5578
vn 0.3008 0.7735 -0.5578
vn -0.0869 -0.2235 -0.9708
vn -0.6827 -0.7307 0.0000
vn -0.1654 -0.1771 0.9702
vn 0.5662 0.6060 0.5587
vn 0.5662 0.6060 -0.5587
vn -0.1654 -0.1771 -0.9702
vn -0.9140 -0.4057 0.0000
vn -0.2120 -0.0941 0.9727
vn 0.7603 0.3374 0.5551
vn 0.7603 0.3374 -0.5551
vn -0.2120 -0.0941 -0.9727
vn -0.7071 0.7071 0.0000
vn 0.7071 0.7071 0.0000
vn 0.0213 0.0213 0.9995
vn -0.0213 0.0213 0.9995
vn -0.6067 -0.6067 0.5136
vn 0.6067 -0.6067 0.5136
vn -0.6067 -0.6067 -0.5136
vn 0.6067 -0.6067 -0.5136
vn 0.0213 0.0213 -0.9995
vn -0.0213 0.0213 -0.9995
vn 0.7071 -0.7071 -0.0000
vn 0.0213 -0.0213 0.9995
vn -0.6067 0.6067 0.5136
vn -0.6067 0.6067 -0.5136
vn 0.0213 -0.0213 -0.9995
vn -0.7071 -0.7071 -0.0000
vn -0.0213 -0.0213 0.9995
vn 0.6067 0.6067 0.5136
vn 0.6067 0.6067 -0.5136
vn -0.0213 -0.0213 -0.9995
# 259 vertex normals

o CLEM_2__Prop_Neon019
g CLEM_2__Prop_Neon019
s 19
f 1//1 2//2 3//3 4//4 
f 4//4 3//3 5//5 6//6 
f 6//6 5//5 7//7 8//8 
f 8//8 7//7 9//9 10//10 
f 10//10 9//9 2//2 1//1 
s 6
f 2//2 11//11 12//12 3//3 
f 3//3 12//12 13//13 5//5 
f 5//5 13//13 14//14 7//7 
f 7//7 14//14 15//15 9//9 
f 9//9 15//15 11//11 2//2 
s 12
f 11//11 16//16 17//17 12//12 
f 12//12 17//17 18//18 13//13 
f 13//13 18//18 19//19 14//14 
f 14//14 19//19 20//20 15//15 
f 15//15 20//20 16//16 11//11 
s 10
f 16//16 21//21 22//22 17//17 
f 17//17 22//22 23//23 18//18 
f 18//18 23//23 24//24 19//19 
f 19//19 24//24 25//25 20//20 
f 20//20 25//25 21//21 16//16 
s 6
f 21//21 26//26 27//27 22//22 
f 22//22 27//27 28//28 23//23 
f 23//23 28//28 29//29 24//24 
f 24//24 29//29 30//30 25//25 
f 25//25 30//30 26//26 21//21 
s 12
f 26//26 31//31 32//32 27//27 
f 27//27 32//32 33//33 28//28 
f 28//28 33//33 34//34 29//29 
f 29//29 34//34 35//35 30//30 
f 30//30 35//35 31//31 26//26 
s 10
f 31//31 36//36 37//37 32//32 
f 32//32 37//37 38//38 33//33 
f 33//33 38//38 39//39 34//34 
f 34//34 39//39 40//40 35//35 
f 35//35 40//40 36//36 31//31 
s 6
f 36//36 41//41 42//42 37//37 
f 37//37 42//42 43//43 38//38 
f 38//38 43//43 44//44 39//39 
f 39//39 44//44 45//45 40//40 
f 40//40 45//45 41//41 36//36 
s 12
f 41//41 46//46 47//47 42//42 
f 42//42 47//47 48//48 43//43 
f 43//43 48//48 49//49 44//44 
f 44//44 49//49 50//50 45//45 
f 45//45 50//50 46//46 41//41 
s 10
f 46//46 51//51 52//52 47//47 
f 47//47 52//52 53//53 48//48 
f 48//48 53//53 54//54 49//49 
f 49//49 54//54 55//55 50//50 
f 50//50 55//55 51//51 46//46 
s 6
f 51//51 56//56 57//57 52//52 
f 52//52 57//57 58//58 53//53 
f 53//53 58//58 59//59 54//54 
f 54//54 59//59 60//60 55//55 
f 55//55 60//60 56//56 51//51 
s 12
f 56//56 61//61 62//62 57//57 
f 57//57 62//62 63//63 58//58 
f 58//58 63//63 64//64 59//59 
f 59//59 64//64 65//65 60//60 
f 60//60 65//65 61//61 56//56 
s 10
f 61//61 66//66 67//67 62//62 
f 62//62 67//67 68//68 63//63 
f 63//63 68//68 69//69 64//64 
f 64//64 69//69 70//70 65//65 
f 65//65 70//70 66//66 61//61 
s 6
f 66//66 71//71 72//72 67//67 
f 67//67 72//72 73//73 68//68 
f 68//68 73//73 74//74 69//69 
f 69//69 74//74 75//75 70//70 
f 70//70 75//75 71//71 66//66 
s 20
f 71//71 76//76 77//77 72//72 
f 72//72 77//77 78//78 73//73 
f 73//73 78//78 79//79 74//74 
f 74//74 79//79 80//80 75//75 
f 75//75 80//80 76//76 71//71 
s 16
f 76//76 1//1 4//4 77//77 
f 77//77 4//4 6//6 78//78 
f 78//78 6//6 8//8 79//79 
f 79//79 8//8 10//10 80//80 
f 80//80 10//10 1//1 76//76 
s 19
f 81//81 82//82 83//83 84//84 
f 84//84 83//83 85//85 86//86 
f 86//86 85//85 87//87 88//88 
f 88//88 87//87 89//89 90//90 
f 90//90 89//89 82//82 81//81 
s 6
f 82//82 91//91 92//92 83//83 
f 83//83 92//92 93//93 85//85 
f 85//85 93//93 94//94 87//87 
f 87//87 94//94 95//95 89//89 
f 89//89 95//95 91//91 82//82 
s 12
f 91//91 96//96 97//97 92//92 
f 92//92 97//97 98//98 93//93 
f 93//93 98//98 99//99 94//94 
f 94//94 99//99 100//100 95//95 
f 95//95 100//100 96//96 91//91 
s 10
f 96//96 101//101 102//102 97//97 
f 97//97 102//102 103//103 98//98 
f 98//98 103//103 104//104 99//99 
f 99//99 104//104 105//105 100//100 
f 100//100 105//105 101//101 96//96 
s 6
f 101//101 106//106 107//107 102//102 
f 102//102 107//107 108//108 103//103 
f 103//103 108//108 109//109 104//104 
f 104//104 109//109 110//110 105//105 
f 105//105 110//110 106//106 101//101 
s 12
f 106//106 111//111 112//112 107//107 
f 107//107 112//112 113//113 108//108 
f 108//108 113//113 114//114 109//109 
f 109//109 114//114 115//115 110//110 
f 110//110 115//115 111//111 106//106 
s 10
f 111//111 116//116 117//117 112//112 
f 112//112 117//117 118//118 113//113 
f 113//113 118//118 119//119 114//114 
f 114//114 119//119 120//120 115//115 
f 115//115 120//120 116//116 111//111 
s 6
f 116//116 121//121 122//122 117//117 
f 117//117 122//122 123//123 118//118 
f 118//118 123//123 124//124 119//119 
f 119//119 124//124 125//125 120//120 
f 120//120 125//125 121//121 116//116 
s 12
f 121//121 126//126 127//127 122//122 
f 122//122 127//127 128//128 123//123 
f 123//123 128//128 129//129 124//124 
f 124//124 129//129 130//130 125//125 
f 125//125 130//130 126//126 121//121 
s 10
f 126//126 131//131 132//132 127//127 
f 127//127 132//132 133//133 128//128 
f 128//128 133//133 134//134 129//129 
f 129//129 134//134 135//135 130//130 
f 130//130 135//135 131//131 126//126 
s 6
f 131//131 136//136 137//137 132//132 
f 132//132 137//137 138//138 133//133 
f 133//133 138//138 139//139 134//134 
f 134//134 139//139 140//140 135//135 
f 135//135 140//140 136//136 131//131 
s 12
f 136//136 141//141 142//142 137//137 
f 137//137 142//142 143//143 138//138 
f 138//138 143//143 144//144 139//139 
f 139//139 144//144 145//145 140//140 
f 140//140 145//145 141//141 136//136 
s 10
f 141//141 146//146 147//147 142//142 
f 142//142 147//147 148//148 143//143 
f 143//143 148//148 149//149 144//144 
f 144//144 149//149 150//150 145//145 
f 145//145 150//150 146//146 141//141 
s 6
f 146//146 151//151 152//152 147//147 
f 147//147 152//152 153//153 148//148 
f 148//148 153//153 154//154 149//149 
f 149//149 154//154 155//155 150//150 
f 150//150 155//155 151//151 146//146 
s 20
f 151//151 156//156 157//157 152//152 
f 152//152 157//157 158//158 153//153 
f 153//153 158//158 159//159 154//154 
f 154//154 159//159 160//160 155//155 
f 155//155 160//160 156//156 151//151 
s 16
f 156//156 81//81 84//84 157//157 
f 157//157 84//84 86//86 158//158 
f 158//158 86//86 88//88 159//159 
f 159//159 88//88 90//90 160//160 
f 160//160 90//90 81//81 156//156 
s 19
f 161//161 162//162 163//163 164//164 
f 164//164 163//163 165//165 166//166 
f 166//166 165//165 167//167 168//168 
f 168//168 167//167 169//169 170//170 
f 170//170 169//169 162//162 161//161 
s 6
f 162//162 171//171 172//172 163//163 
f 163//163 172//172 173//173 165//165 
f 165//165 173//173 174//174 167//167 
f 167//167 174//174 175//175 169//169 
f 169//169 175//175 171//171 162//162 
s 12
f 171//171 176//176 177//177 172//172 
f 172//172 177//177 178//178 173//173 
f 173//173 178//178 179//179 174//174 
f 174//174 179//179 180//180 175//175 
f 175//175 180//180 176//176 171//171 
s 10
f 176//176 181//181 182//182 177//177 
f 177//177 182//182 183//183 178//178 
f 178//178 183//183 184//184 179//179 
f 179//179 184//184 185//185 180//180 
f 180//180 185//185 181//181 176//176 
s 6
f 181//181 186//186 187//187 182//182 
f 182//182 187//187 188//188 183//183 
f 183//183 188//188 189//189 184//184 
f 184//184 189//189 190//190 185//185 
f 185//185 190//190 186//186 181//181 
s 12
f 186//186 191//191 192//192 187//187 
f 187//187 192//192 193//193 188//188 
f 188//188 193//193 194//194 189//189 
f 189//189 194//194 195//195 190//190 
f 190//190 195//195 191//191 186//186 
s 10
f 191//191 196//196 197//197 192//192 
f 192//192 197//197 198//198 193//193 
f 193//193 198//198 199//199 194//194 
f 194//194 199//199 200//200 195//195 
f 195//195 200//200 196//196 191//191 
s 6
f 196//196 201//41 202//201 197//197 
f 197//197 202//201 203//202 198//198 
f 198//198 203//202 204//203 199//199 
f 199//199 204//203 205//204 200//200 
f 200//200 205//204 201//41 196//196 
s 12
f 201//41 206//205 207//206 202//201 
f 202//201 207//206 208//207 203//202 
f 203//202 208//207 209//208 204//203 
f 204//203 209//208 210//209 205//204 
f 205//204 210//209 206//205 201//41 
s 10
f 206//205 211//210 212//211 207//206 
f 207//206 212//211 213//212 208//207 
f 208//207 213//212 214//213 209//208 
f 209//208 214//213 215//214 210//209 
f 210//209 215//214 211//210 206//205 
s 6
f 211//210 216//215 217//216 212//211 
f 212//211 217//216 218//217 213//212 
f 213//212 218//217 219//218 214//213 
f 214//213 219//218 220//219 215//214 
f 215//214 220//219 216//215 211//210 
s 12
f 216//215 221//220 222//221 217//216 
f 217//216 222//221 223//222 218//217 
f 218//217 223//222 224//223 219//218 
f 219//218 224//223 225//224 220//219 
f 220//219 225//224 221//220 216//215 
s 10
f 221//220 226//225 227//226 222//221 
f 222//221 227//226 228//227 223//222 
f 223//222 228//227 229//228 224//223 
f 224//223 229//228 230//229 225//224 
f 225//224 230//229 226//225 221//220 
s 6
f 226//225 231//230 232//231 227//226 
f 227//226 232//231 233//232 228//227 
f 228//227 233//232 234//233 229//228 
f 229//228 234//233 235//234 230//229 
f 230//229 235//234 231//230 226//225 
s 20
f 231//230 236//235 237//236 232//231 
f 232//231 237//236 238//237 233//232 
f 233//232 238//237 239//238 234//233 
f 234//233 239//238 240//239 235//234 
f 235//234 240//239 236//235 231//230 
s 16
f 236//235 161//161 164//164 237//236 
f 237//236 164//164 166//166 238//237 
f 238//237 166//166 168//168 239//238 
f 239//238 168//168 170//170 240//239 
f 240//239 170//170 161//161 236//235 
s 1
f 241//240 242//241 243//242 244//243 
f 244//243 243//242 245//244 246//245 
f 246//245 245//244 247//246 248//247 
f 248//247 247//246 249//248 250//249 
f 250//249 249//248 242//241 241//240 
s 2
f 242//241 251//250 252//251 243//242 
f 243//242 252//251 253//252 245//244 
f 245//244 253//252 254//253 247//246 
f 247//246 254//253 255//254 249//248 
f 249//248 255//254 251//250 242//241 
s 4
f 251//250 256//255 257//256 252//251 
f 252//251 257//256 258//257 253//252 
f 253//252 258//257 259//258 254//253 
f 254//253 259//258 260//259 255//254 
f 255//254 260//259 256//255 251//250 
s 16
f 256//255 241//240 244//243 257//256 
f 257//256 244//243 246//245 258//257 
f 258//257 246//245 248//247 259//258 
f 259//258 248//247 250//249 260//259 
f 260//259 250//249 241//240 256//255 
# 260 polygons

